G04 EAGLE Gerber RS-274X export*
G75*
%MOMM*%
%FSLAX34Y34*%
%LPD*%
%IN*%
%IPPOS*%
%AMOC8*
5,1,8,0,0,1.08239X$1,22.5*%
G01*
%ADD10C,0.254000*%


D10*
X0Y60000D02*
X228Y54771D01*
X912Y49581D01*
X2044Y44471D01*
X3618Y39479D01*
X5622Y34643D01*
X8038Y30000D01*
X10851Y25585D01*
X14037Y21433D01*
X17574Y17574D01*
X21433Y14037D01*
X25585Y10851D01*
X30000Y8038D01*
X34643Y5622D01*
X39479Y3618D01*
X44471Y2044D01*
X49581Y912D01*
X54771Y228D01*
X60000Y0D01*
X840000Y0D01*
X845229Y228D01*
X850419Y912D01*
X855529Y2044D01*
X860521Y3618D01*
X865357Y5622D01*
X870000Y8038D01*
X874415Y10851D01*
X878567Y14037D01*
X882426Y17574D01*
X885963Y21433D01*
X889149Y25585D01*
X891962Y30000D01*
X894378Y34643D01*
X896382Y39479D01*
X897956Y44471D01*
X899088Y49581D01*
X899772Y54771D01*
X900000Y60000D01*
X900000Y710000D01*
X899772Y715229D01*
X899088Y720419D01*
X897956Y725529D01*
X896382Y730521D01*
X894378Y735357D01*
X891962Y740000D01*
X889149Y744415D01*
X885963Y748567D01*
X882426Y752426D01*
X878567Y755963D01*
X874415Y759149D01*
X870000Y761962D01*
X865357Y764378D01*
X860521Y766382D01*
X855529Y767956D01*
X850419Y769088D01*
X845229Y769772D01*
X840000Y770000D01*
X60000Y770000D01*
X54771Y769772D01*
X49581Y769088D01*
X44471Y767956D01*
X39479Y766382D01*
X34643Y764378D01*
X30000Y761962D01*
X25585Y759149D01*
X21433Y755963D01*
X17574Y752426D01*
X14037Y748567D01*
X10851Y744415D01*
X8038Y740000D01*
X5622Y735357D01*
X3618Y730521D01*
X2044Y725529D01*
X912Y720419D01*
X228Y715229D01*
X0Y710000D01*
X0Y60000D01*
X80000Y59396D02*
X79927Y58189D01*
X79781Y56989D01*
X79563Y55800D01*
X79274Y54627D01*
X78915Y53473D01*
X78486Y52343D01*
X77990Y51241D01*
X77428Y50170D01*
X76803Y49136D01*
X76116Y48141D01*
X75371Y47190D01*
X74569Y46285D01*
X73715Y45431D01*
X72810Y44629D01*
X71859Y43884D01*
X70864Y43197D01*
X69830Y42572D01*
X68759Y42010D01*
X67657Y41514D01*
X66527Y41085D01*
X65373Y40726D01*
X64200Y40437D01*
X63011Y40219D01*
X61811Y40073D01*
X60604Y40000D01*
X59396Y40000D01*
X58189Y40073D01*
X56989Y40219D01*
X55800Y40437D01*
X54627Y40726D01*
X53473Y41085D01*
X52343Y41514D01*
X51241Y42010D01*
X50170Y42572D01*
X49136Y43197D01*
X48141Y43884D01*
X47190Y44629D01*
X46285Y45431D01*
X45431Y46285D01*
X44629Y47190D01*
X43884Y48141D01*
X43197Y49136D01*
X42572Y50170D01*
X42010Y51241D01*
X41514Y52343D01*
X41085Y53473D01*
X40726Y54627D01*
X40437Y55800D01*
X40219Y56989D01*
X40073Y58189D01*
X40000Y59396D01*
X40000Y60604D01*
X40073Y61811D01*
X40219Y63011D01*
X40437Y64200D01*
X40726Y65373D01*
X41085Y66527D01*
X41514Y67657D01*
X42010Y68759D01*
X42572Y69830D01*
X43197Y70864D01*
X43884Y71859D01*
X44629Y72810D01*
X45431Y73715D01*
X46285Y74569D01*
X47190Y75371D01*
X48141Y76116D01*
X49136Y76803D01*
X50170Y77428D01*
X51241Y77990D01*
X52343Y78486D01*
X53473Y78915D01*
X54627Y79274D01*
X55800Y79563D01*
X56989Y79781D01*
X58189Y79927D01*
X59396Y80000D01*
X60604Y80000D01*
X61811Y79927D01*
X63011Y79781D01*
X64200Y79563D01*
X65373Y79274D01*
X66527Y78915D01*
X67657Y78486D01*
X68759Y77990D01*
X69830Y77428D01*
X70864Y76803D01*
X71859Y76116D01*
X72810Y75371D01*
X73715Y74569D01*
X74569Y73715D01*
X75371Y72810D01*
X76116Y71859D01*
X76803Y70864D01*
X77428Y69830D01*
X77990Y68759D01*
X78486Y67657D01*
X78915Y66527D01*
X79274Y65373D01*
X79563Y64200D01*
X79781Y63011D01*
X79927Y61811D01*
X80000Y60604D01*
X80000Y59396D01*
X860000Y59396D02*
X859927Y58189D01*
X859781Y56989D01*
X859563Y55800D01*
X859274Y54627D01*
X858915Y53473D01*
X858486Y52343D01*
X857990Y51241D01*
X857428Y50170D01*
X856803Y49136D01*
X856116Y48141D01*
X855371Y47190D01*
X854569Y46285D01*
X853715Y45431D01*
X852810Y44629D01*
X851859Y43884D01*
X850864Y43197D01*
X849830Y42572D01*
X848759Y42010D01*
X847657Y41514D01*
X846527Y41085D01*
X845373Y40726D01*
X844200Y40437D01*
X843011Y40219D01*
X841811Y40073D01*
X840604Y40000D01*
X839396Y40000D01*
X838189Y40073D01*
X836989Y40219D01*
X835800Y40437D01*
X834627Y40726D01*
X833473Y41085D01*
X832343Y41514D01*
X831241Y42010D01*
X830170Y42572D01*
X829136Y43197D01*
X828141Y43884D01*
X827190Y44629D01*
X826285Y45431D01*
X825431Y46285D01*
X824629Y47190D01*
X823884Y48141D01*
X823197Y49136D01*
X822572Y50170D01*
X822010Y51241D01*
X821514Y52343D01*
X821085Y53473D01*
X820726Y54627D01*
X820437Y55800D01*
X820219Y56989D01*
X820073Y58189D01*
X820000Y59396D01*
X820000Y60604D01*
X820073Y61811D01*
X820219Y63011D01*
X820437Y64200D01*
X820726Y65373D01*
X821085Y66527D01*
X821514Y67657D01*
X822010Y68759D01*
X822572Y69830D01*
X823197Y70864D01*
X823884Y71859D01*
X824629Y72810D01*
X825431Y73715D01*
X826285Y74569D01*
X827190Y75371D01*
X828141Y76116D01*
X829136Y76803D01*
X830170Y77428D01*
X831241Y77990D01*
X832343Y78486D01*
X833473Y78915D01*
X834627Y79274D01*
X835800Y79563D01*
X836989Y79781D01*
X838189Y79927D01*
X839396Y80000D01*
X840604Y80000D01*
X841811Y79927D01*
X843011Y79781D01*
X844200Y79563D01*
X845373Y79274D01*
X846527Y78915D01*
X847657Y78486D01*
X848759Y77990D01*
X849830Y77428D01*
X850864Y76803D01*
X851859Y76116D01*
X852810Y75371D01*
X853715Y74569D01*
X854569Y73715D01*
X855371Y72810D01*
X856116Y71859D01*
X856803Y70864D01*
X857428Y69830D01*
X857990Y68759D01*
X858486Y67657D01*
X858915Y66527D01*
X859274Y65373D01*
X859563Y64200D01*
X859781Y63011D01*
X859927Y61811D01*
X860000Y60604D01*
X860000Y59396D01*
X80000Y709396D02*
X79927Y708189D01*
X79781Y706989D01*
X79563Y705800D01*
X79274Y704627D01*
X78915Y703473D01*
X78486Y702343D01*
X77990Y701241D01*
X77428Y700170D01*
X76803Y699136D01*
X76116Y698141D01*
X75371Y697190D01*
X74569Y696285D01*
X73715Y695431D01*
X72810Y694629D01*
X71859Y693884D01*
X70864Y693197D01*
X69830Y692572D01*
X68759Y692010D01*
X67657Y691514D01*
X66527Y691085D01*
X65373Y690726D01*
X64200Y690437D01*
X63011Y690219D01*
X61811Y690073D01*
X60604Y690000D01*
X59396Y690000D01*
X58189Y690073D01*
X56989Y690219D01*
X55800Y690437D01*
X54627Y690726D01*
X53473Y691085D01*
X52343Y691514D01*
X51241Y692010D01*
X50170Y692572D01*
X49136Y693197D01*
X48141Y693884D01*
X47190Y694629D01*
X46285Y695431D01*
X45431Y696285D01*
X44629Y697190D01*
X43884Y698141D01*
X43197Y699136D01*
X42572Y700170D01*
X42010Y701241D01*
X41514Y702343D01*
X41085Y703473D01*
X40726Y704627D01*
X40437Y705800D01*
X40219Y706989D01*
X40073Y708189D01*
X40000Y709396D01*
X40000Y710604D01*
X40073Y711811D01*
X40219Y713011D01*
X40437Y714200D01*
X40726Y715373D01*
X41085Y716527D01*
X41514Y717657D01*
X42010Y718759D01*
X42572Y719830D01*
X43197Y720864D01*
X43884Y721859D01*
X44629Y722810D01*
X45431Y723715D01*
X46285Y724569D01*
X47190Y725371D01*
X48141Y726116D01*
X49136Y726803D01*
X50170Y727428D01*
X51241Y727990D01*
X52343Y728486D01*
X53473Y728915D01*
X54627Y729274D01*
X55800Y729563D01*
X56989Y729781D01*
X58189Y729927D01*
X59396Y730000D01*
X60604Y730000D01*
X61811Y729927D01*
X63011Y729781D01*
X64200Y729563D01*
X65373Y729274D01*
X66527Y728915D01*
X67657Y728486D01*
X68759Y727990D01*
X69830Y727428D01*
X70864Y726803D01*
X71859Y726116D01*
X72810Y725371D01*
X73715Y724569D01*
X74569Y723715D01*
X75371Y722810D01*
X76116Y721859D01*
X76803Y720864D01*
X77428Y719830D01*
X77990Y718759D01*
X78486Y717657D01*
X78915Y716527D01*
X79274Y715373D01*
X79563Y714200D01*
X79781Y713011D01*
X79927Y711811D01*
X80000Y710604D01*
X80000Y709396D01*
X860000Y709396D02*
X859927Y708189D01*
X859781Y706989D01*
X859563Y705800D01*
X859274Y704627D01*
X858915Y703473D01*
X858486Y702343D01*
X857990Y701241D01*
X857428Y700170D01*
X856803Y699136D01*
X856116Y698141D01*
X855371Y697190D01*
X854569Y696285D01*
X853715Y695431D01*
X852810Y694629D01*
X851859Y693884D01*
X850864Y693197D01*
X849830Y692572D01*
X848759Y692010D01*
X847657Y691514D01*
X846527Y691085D01*
X845373Y690726D01*
X844200Y690437D01*
X843011Y690219D01*
X841811Y690073D01*
X840604Y690000D01*
X839396Y690000D01*
X838189Y690073D01*
X836989Y690219D01*
X835800Y690437D01*
X834627Y690726D01*
X833473Y691085D01*
X832343Y691514D01*
X831241Y692010D01*
X830170Y692572D01*
X829136Y693197D01*
X828141Y693884D01*
X827190Y694629D01*
X826285Y695431D01*
X825431Y696285D01*
X824629Y697190D01*
X823884Y698141D01*
X823197Y699136D01*
X822572Y700170D01*
X822010Y701241D01*
X821514Y702343D01*
X821085Y703473D01*
X820726Y704627D01*
X820437Y705800D01*
X820219Y706989D01*
X820073Y708189D01*
X820000Y709396D01*
X820000Y710604D01*
X820073Y711811D01*
X820219Y713011D01*
X820437Y714200D01*
X820726Y715373D01*
X821085Y716527D01*
X821514Y717657D01*
X822010Y718759D01*
X822572Y719830D01*
X823197Y720864D01*
X823884Y721859D01*
X824629Y722810D01*
X825431Y723715D01*
X826285Y724569D01*
X827190Y725371D01*
X828141Y726116D01*
X829136Y726803D01*
X830170Y727428D01*
X831241Y727990D01*
X832343Y728486D01*
X833473Y728915D01*
X834627Y729274D01*
X835800Y729563D01*
X836989Y729781D01*
X838189Y729927D01*
X839396Y730000D01*
X840604Y730000D01*
X841811Y729927D01*
X843011Y729781D01*
X844200Y729563D01*
X845373Y729274D01*
X846527Y728915D01*
X847657Y728486D01*
X848759Y727990D01*
X849830Y727428D01*
X850864Y726803D01*
X851859Y726116D01*
X852810Y725371D01*
X853715Y724569D01*
X854569Y723715D01*
X855371Y722810D01*
X856116Y721859D01*
X856803Y720864D01*
X857428Y719830D01*
X857990Y718759D01*
X858486Y717657D01*
X858915Y716527D01*
X859274Y715373D01*
X859563Y714200D01*
X859781Y713011D01*
X859927Y711811D01*
X860000Y710604D01*
X860000Y709396D01*
X839000Y520337D02*
X839075Y521007D01*
X839225Y521664D01*
X839448Y522300D01*
X839740Y522907D01*
X840099Y523478D01*
X840519Y524004D01*
X840996Y524481D01*
X841523Y524901D01*
X842093Y525260D01*
X842700Y525552D01*
X843336Y525775D01*
X843993Y525925D01*
X844663Y526000D01*
X845337Y526000D01*
X846007Y525925D01*
X846664Y525775D01*
X847300Y525552D01*
X847907Y525260D01*
X848478Y524901D01*
X849004Y524481D01*
X849481Y524004D01*
X849901Y523478D01*
X850260Y522907D01*
X850552Y522300D01*
X850775Y521664D01*
X850925Y521007D01*
X851000Y520337D01*
X851000Y519663D01*
X850925Y518993D01*
X850775Y518336D01*
X850552Y517700D01*
X850260Y517093D01*
X849901Y516523D01*
X849481Y515996D01*
X849004Y515519D01*
X848478Y515099D01*
X847907Y514740D01*
X847300Y514448D01*
X846664Y514225D01*
X846007Y514075D01*
X845337Y514000D01*
X844663Y514000D01*
X843993Y514075D01*
X843336Y514225D01*
X842700Y514448D01*
X842093Y514740D01*
X841523Y515099D01*
X840996Y515519D01*
X840519Y515996D01*
X840099Y516523D01*
X839740Y517093D01*
X839448Y517700D01*
X839225Y518336D01*
X839075Y518993D01*
X839000Y519663D01*
X839000Y520337D01*
X864000Y520337D02*
X864075Y521007D01*
X864225Y521664D01*
X864448Y522300D01*
X864740Y522907D01*
X865099Y523478D01*
X865519Y524004D01*
X865996Y524481D01*
X866523Y524901D01*
X867093Y525260D01*
X867700Y525552D01*
X868336Y525775D01*
X868993Y525925D01*
X869663Y526000D01*
X870337Y526000D01*
X871007Y525925D01*
X871664Y525775D01*
X872300Y525552D01*
X872907Y525260D01*
X873478Y524901D01*
X874004Y524481D01*
X874481Y524004D01*
X874901Y523478D01*
X875260Y522907D01*
X875552Y522300D01*
X875775Y521664D01*
X875925Y521007D01*
X876000Y520337D01*
X876000Y519663D01*
X875925Y518993D01*
X875775Y518336D01*
X875552Y517700D01*
X875260Y517093D01*
X874901Y516523D01*
X874481Y515996D01*
X874004Y515519D01*
X873478Y515099D01*
X872907Y514740D01*
X872300Y514448D01*
X871664Y514225D01*
X871007Y514075D01*
X870337Y514000D01*
X869663Y514000D01*
X868993Y514075D01*
X868336Y514225D01*
X867700Y514448D01*
X867093Y514740D01*
X866523Y515099D01*
X865996Y515519D01*
X865519Y515996D01*
X865099Y516523D01*
X864740Y517093D01*
X864448Y517700D01*
X864225Y518336D01*
X864075Y518993D01*
X864000Y519663D01*
X864000Y520337D01*
X864000Y620337D02*
X864075Y621007D01*
X864225Y621664D01*
X864448Y622300D01*
X864740Y622907D01*
X865099Y623478D01*
X865519Y624004D01*
X865996Y624481D01*
X866523Y624901D01*
X867093Y625260D01*
X867700Y625552D01*
X868336Y625775D01*
X868993Y625925D01*
X869663Y626000D01*
X870337Y626000D01*
X871007Y625925D01*
X871664Y625775D01*
X872300Y625552D01*
X872907Y625260D01*
X873478Y624901D01*
X874004Y624481D01*
X874481Y624004D01*
X874901Y623478D01*
X875260Y622907D01*
X875552Y622300D01*
X875775Y621664D01*
X875925Y621007D01*
X876000Y620337D01*
X876000Y619663D01*
X875925Y618993D01*
X875775Y618336D01*
X875552Y617700D01*
X875260Y617093D01*
X874901Y616523D01*
X874481Y615996D01*
X874004Y615519D01*
X873478Y615099D01*
X872907Y614740D01*
X872300Y614448D01*
X871664Y614225D01*
X871007Y614075D01*
X870337Y614000D01*
X869663Y614000D01*
X868993Y614075D01*
X868336Y614225D01*
X867700Y614448D01*
X867093Y614740D01*
X866523Y615099D01*
X865996Y615519D01*
X865519Y615996D01*
X865099Y616523D01*
X864740Y617093D01*
X864448Y617700D01*
X864225Y618336D01*
X864075Y618993D01*
X864000Y619663D01*
X864000Y620337D01*
X839000Y620337D02*
X839075Y621007D01*
X839225Y621664D01*
X839448Y622300D01*
X839740Y622907D01*
X840099Y623478D01*
X840519Y624004D01*
X840996Y624481D01*
X841523Y624901D01*
X842093Y625260D01*
X842700Y625552D01*
X843336Y625775D01*
X843993Y625925D01*
X844663Y626000D01*
X845337Y626000D01*
X846007Y625925D01*
X846664Y625775D01*
X847300Y625552D01*
X847907Y625260D01*
X848478Y624901D01*
X849004Y624481D01*
X849481Y624004D01*
X849901Y623478D01*
X850260Y622907D01*
X850552Y622300D01*
X850775Y621664D01*
X850925Y621007D01*
X851000Y620337D01*
X851000Y619663D01*
X850925Y618993D01*
X850775Y618336D01*
X850552Y617700D01*
X850260Y617093D01*
X849901Y616523D01*
X849481Y615996D01*
X849004Y615519D01*
X848478Y615099D01*
X847907Y614740D01*
X847300Y614448D01*
X846664Y614225D01*
X846007Y614075D01*
X845337Y614000D01*
X844663Y614000D01*
X843993Y614075D01*
X843336Y614225D01*
X842700Y614448D01*
X842093Y614740D01*
X841523Y615099D01*
X840996Y615519D01*
X840519Y615996D01*
X840099Y616523D01*
X839740Y617093D01*
X839448Y617700D01*
X839225Y618336D01*
X839075Y618993D01*
X839000Y619663D01*
X839000Y620337D01*
X789000Y570337D02*
X789075Y571007D01*
X789225Y571664D01*
X789448Y572300D01*
X789740Y572907D01*
X790099Y573478D01*
X790519Y574004D01*
X790996Y574481D01*
X791523Y574901D01*
X792093Y575260D01*
X792700Y575552D01*
X793336Y575775D01*
X793993Y575925D01*
X794663Y576000D01*
X795337Y576000D01*
X796007Y575925D01*
X796664Y575775D01*
X797300Y575552D01*
X797907Y575260D01*
X798478Y574901D01*
X799004Y574481D01*
X799481Y574004D01*
X799901Y573478D01*
X800260Y572907D01*
X800552Y572300D01*
X800775Y571664D01*
X800925Y571007D01*
X801000Y570337D01*
X801000Y569663D01*
X800925Y568993D01*
X800775Y568336D01*
X800552Y567700D01*
X800260Y567093D01*
X799901Y566523D01*
X799481Y565996D01*
X799004Y565519D01*
X798478Y565099D01*
X797907Y564740D01*
X797300Y564448D01*
X796664Y564225D01*
X796007Y564075D01*
X795337Y564000D01*
X794663Y564000D01*
X793993Y564075D01*
X793336Y564225D01*
X792700Y564448D01*
X792093Y564740D01*
X791523Y565099D01*
X790996Y565519D01*
X790519Y565996D01*
X790099Y566523D01*
X789740Y567093D01*
X789448Y567700D01*
X789225Y568336D01*
X789075Y568993D01*
X789000Y569663D01*
X789000Y570337D01*
X839000Y390337D02*
X839075Y391007D01*
X839225Y391664D01*
X839448Y392300D01*
X839740Y392907D01*
X840099Y393478D01*
X840519Y394004D01*
X840996Y394481D01*
X841523Y394901D01*
X842093Y395260D01*
X842700Y395552D01*
X843336Y395775D01*
X843993Y395925D01*
X844663Y396000D01*
X845337Y396000D01*
X846007Y395925D01*
X846664Y395775D01*
X847300Y395552D01*
X847907Y395260D01*
X848478Y394901D01*
X849004Y394481D01*
X849481Y394004D01*
X849901Y393478D01*
X850260Y392907D01*
X850552Y392300D01*
X850775Y391664D01*
X850925Y391007D01*
X851000Y390337D01*
X851000Y389663D01*
X850925Y388993D01*
X850775Y388336D01*
X850552Y387700D01*
X850260Y387093D01*
X849901Y386523D01*
X849481Y385996D01*
X849004Y385519D01*
X848478Y385099D01*
X847907Y384740D01*
X847300Y384448D01*
X846664Y384225D01*
X846007Y384075D01*
X845337Y384000D01*
X844663Y384000D01*
X843993Y384075D01*
X843336Y384225D01*
X842700Y384448D01*
X842093Y384740D01*
X841523Y385099D01*
X840996Y385519D01*
X840519Y385996D01*
X840099Y386523D01*
X839740Y387093D01*
X839448Y387700D01*
X839225Y388336D01*
X839075Y388993D01*
X839000Y389663D01*
X839000Y390337D01*
X864000Y390337D02*
X864075Y391007D01*
X864225Y391664D01*
X864448Y392300D01*
X864740Y392907D01*
X865099Y393478D01*
X865519Y394004D01*
X865996Y394481D01*
X866523Y394901D01*
X867093Y395260D01*
X867700Y395552D01*
X868336Y395775D01*
X868993Y395925D01*
X869663Y396000D01*
X870337Y396000D01*
X871007Y395925D01*
X871664Y395775D01*
X872300Y395552D01*
X872907Y395260D01*
X873478Y394901D01*
X874004Y394481D01*
X874481Y394004D01*
X874901Y393478D01*
X875260Y392907D01*
X875552Y392300D01*
X875775Y391664D01*
X875925Y391007D01*
X876000Y390337D01*
X876000Y389663D01*
X875925Y388993D01*
X875775Y388336D01*
X875552Y387700D01*
X875260Y387093D01*
X874901Y386523D01*
X874481Y385996D01*
X874004Y385519D01*
X873478Y385099D01*
X872907Y384740D01*
X872300Y384448D01*
X871664Y384225D01*
X871007Y384075D01*
X870337Y384000D01*
X869663Y384000D01*
X868993Y384075D01*
X868336Y384225D01*
X867700Y384448D01*
X867093Y384740D01*
X866523Y385099D01*
X865996Y385519D01*
X865519Y385996D01*
X865099Y386523D01*
X864740Y387093D01*
X864448Y387700D01*
X864225Y388336D01*
X864075Y388993D01*
X864000Y389663D01*
X864000Y390337D01*
X864000Y490337D02*
X864075Y491007D01*
X864225Y491664D01*
X864448Y492300D01*
X864740Y492907D01*
X865099Y493478D01*
X865519Y494004D01*
X865996Y494481D01*
X866523Y494901D01*
X867093Y495260D01*
X867700Y495552D01*
X868336Y495775D01*
X868993Y495925D01*
X869663Y496000D01*
X870337Y496000D01*
X871007Y495925D01*
X871664Y495775D01*
X872300Y495552D01*
X872907Y495260D01*
X873478Y494901D01*
X874004Y494481D01*
X874481Y494004D01*
X874901Y493478D01*
X875260Y492907D01*
X875552Y492300D01*
X875775Y491664D01*
X875925Y491007D01*
X876000Y490337D01*
X876000Y489663D01*
X875925Y488993D01*
X875775Y488336D01*
X875552Y487700D01*
X875260Y487093D01*
X874901Y486523D01*
X874481Y485996D01*
X874004Y485519D01*
X873478Y485099D01*
X872907Y484740D01*
X872300Y484448D01*
X871664Y484225D01*
X871007Y484075D01*
X870337Y484000D01*
X869663Y484000D01*
X868993Y484075D01*
X868336Y484225D01*
X867700Y484448D01*
X867093Y484740D01*
X866523Y485099D01*
X865996Y485519D01*
X865519Y485996D01*
X865099Y486523D01*
X864740Y487093D01*
X864448Y487700D01*
X864225Y488336D01*
X864075Y488993D01*
X864000Y489663D01*
X864000Y490337D01*
X839000Y490337D02*
X839075Y491007D01*
X839225Y491664D01*
X839448Y492300D01*
X839740Y492907D01*
X840099Y493478D01*
X840519Y494004D01*
X840996Y494481D01*
X841523Y494901D01*
X842093Y495260D01*
X842700Y495552D01*
X843336Y495775D01*
X843993Y495925D01*
X844663Y496000D01*
X845337Y496000D01*
X846007Y495925D01*
X846664Y495775D01*
X847300Y495552D01*
X847907Y495260D01*
X848478Y494901D01*
X849004Y494481D01*
X849481Y494004D01*
X849901Y493478D01*
X850260Y492907D01*
X850552Y492300D01*
X850775Y491664D01*
X850925Y491007D01*
X851000Y490337D01*
X851000Y489663D01*
X850925Y488993D01*
X850775Y488336D01*
X850552Y487700D01*
X850260Y487093D01*
X849901Y486523D01*
X849481Y485996D01*
X849004Y485519D01*
X848478Y485099D01*
X847907Y484740D01*
X847300Y484448D01*
X846664Y484225D01*
X846007Y484075D01*
X845337Y484000D01*
X844663Y484000D01*
X843993Y484075D01*
X843336Y484225D01*
X842700Y484448D01*
X842093Y484740D01*
X841523Y485099D01*
X840996Y485519D01*
X840519Y485996D01*
X840099Y486523D01*
X839740Y487093D01*
X839448Y487700D01*
X839225Y488336D01*
X839075Y488993D01*
X839000Y489663D01*
X839000Y490337D01*
X789000Y440337D02*
X789075Y441007D01*
X789225Y441664D01*
X789448Y442300D01*
X789740Y442907D01*
X790099Y443478D01*
X790519Y444004D01*
X790996Y444481D01*
X791523Y444901D01*
X792093Y445260D01*
X792700Y445552D01*
X793336Y445775D01*
X793993Y445925D01*
X794663Y446000D01*
X795337Y446000D01*
X796007Y445925D01*
X796664Y445775D01*
X797300Y445552D01*
X797907Y445260D01*
X798478Y444901D01*
X799004Y444481D01*
X799481Y444004D01*
X799901Y443478D01*
X800260Y442907D01*
X800552Y442300D01*
X800775Y441664D01*
X800925Y441007D01*
X801000Y440337D01*
X801000Y439663D01*
X800925Y438993D01*
X800775Y438336D01*
X800552Y437700D01*
X800260Y437093D01*
X799901Y436523D01*
X799481Y435996D01*
X799004Y435519D01*
X798478Y435099D01*
X797907Y434740D01*
X797300Y434448D01*
X796664Y434225D01*
X796007Y434075D01*
X795337Y434000D01*
X794663Y434000D01*
X793993Y434075D01*
X793336Y434225D01*
X792700Y434448D01*
X792093Y434740D01*
X791523Y435099D01*
X790996Y435519D01*
X790519Y435996D01*
X790099Y436523D01*
X789740Y437093D01*
X789448Y437700D01*
X789225Y438336D01*
X789075Y438993D01*
X789000Y439663D01*
X789000Y440337D01*
X839000Y120337D02*
X839075Y121007D01*
X839225Y121664D01*
X839448Y122300D01*
X839740Y122907D01*
X840099Y123478D01*
X840519Y124004D01*
X840996Y124481D01*
X841523Y124901D01*
X842093Y125260D01*
X842700Y125552D01*
X843336Y125775D01*
X843993Y125925D01*
X844663Y126000D01*
X845337Y126000D01*
X846007Y125925D01*
X846664Y125775D01*
X847300Y125552D01*
X847907Y125260D01*
X848478Y124901D01*
X849004Y124481D01*
X849481Y124004D01*
X849901Y123478D01*
X850260Y122907D01*
X850552Y122300D01*
X850775Y121664D01*
X850925Y121007D01*
X851000Y120337D01*
X851000Y119663D01*
X850925Y118993D01*
X850775Y118336D01*
X850552Y117700D01*
X850260Y117093D01*
X849901Y116523D01*
X849481Y115996D01*
X849004Y115519D01*
X848478Y115099D01*
X847907Y114740D01*
X847300Y114448D01*
X846664Y114225D01*
X846007Y114075D01*
X845337Y114000D01*
X844663Y114000D01*
X843993Y114075D01*
X843336Y114225D01*
X842700Y114448D01*
X842093Y114740D01*
X841523Y115099D01*
X840996Y115519D01*
X840519Y115996D01*
X840099Y116523D01*
X839740Y117093D01*
X839448Y117700D01*
X839225Y118336D01*
X839075Y118993D01*
X839000Y119663D01*
X839000Y120337D01*
X864000Y120337D02*
X864075Y121007D01*
X864225Y121664D01*
X864448Y122300D01*
X864740Y122907D01*
X865099Y123478D01*
X865519Y124004D01*
X865996Y124481D01*
X866523Y124901D01*
X867093Y125260D01*
X867700Y125552D01*
X868336Y125775D01*
X868993Y125925D01*
X869663Y126000D01*
X870337Y126000D01*
X871007Y125925D01*
X871664Y125775D01*
X872300Y125552D01*
X872907Y125260D01*
X873478Y124901D01*
X874004Y124481D01*
X874481Y124004D01*
X874901Y123478D01*
X875260Y122907D01*
X875552Y122300D01*
X875775Y121664D01*
X875925Y121007D01*
X876000Y120337D01*
X876000Y119663D01*
X875925Y118993D01*
X875775Y118336D01*
X875552Y117700D01*
X875260Y117093D01*
X874901Y116523D01*
X874481Y115996D01*
X874004Y115519D01*
X873478Y115099D01*
X872907Y114740D01*
X872300Y114448D01*
X871664Y114225D01*
X871007Y114075D01*
X870337Y114000D01*
X869663Y114000D01*
X868993Y114075D01*
X868336Y114225D01*
X867700Y114448D01*
X867093Y114740D01*
X866523Y115099D01*
X865996Y115519D01*
X865519Y115996D01*
X865099Y116523D01*
X864740Y117093D01*
X864448Y117700D01*
X864225Y118336D01*
X864075Y118993D01*
X864000Y119663D01*
X864000Y120337D01*
X864000Y220337D02*
X864075Y221007D01*
X864225Y221664D01*
X864448Y222300D01*
X864740Y222907D01*
X865099Y223478D01*
X865519Y224004D01*
X865996Y224481D01*
X866523Y224901D01*
X867093Y225260D01*
X867700Y225552D01*
X868336Y225775D01*
X868993Y225925D01*
X869663Y226000D01*
X870337Y226000D01*
X871007Y225925D01*
X871664Y225775D01*
X872300Y225552D01*
X872907Y225260D01*
X873478Y224901D01*
X874004Y224481D01*
X874481Y224004D01*
X874901Y223478D01*
X875260Y222907D01*
X875552Y222300D01*
X875775Y221664D01*
X875925Y221007D01*
X876000Y220337D01*
X876000Y219663D01*
X875925Y218993D01*
X875775Y218336D01*
X875552Y217700D01*
X875260Y217093D01*
X874901Y216523D01*
X874481Y215996D01*
X874004Y215519D01*
X873478Y215099D01*
X872907Y214740D01*
X872300Y214448D01*
X871664Y214225D01*
X871007Y214075D01*
X870337Y214000D01*
X869663Y214000D01*
X868993Y214075D01*
X868336Y214225D01*
X867700Y214448D01*
X867093Y214740D01*
X866523Y215099D01*
X865996Y215519D01*
X865519Y215996D01*
X865099Y216523D01*
X864740Y217093D01*
X864448Y217700D01*
X864225Y218336D01*
X864075Y218993D01*
X864000Y219663D01*
X864000Y220337D01*
X839000Y220337D02*
X839075Y221007D01*
X839225Y221664D01*
X839448Y222300D01*
X839740Y222907D01*
X840099Y223478D01*
X840519Y224004D01*
X840996Y224481D01*
X841523Y224901D01*
X842093Y225260D01*
X842700Y225552D01*
X843336Y225775D01*
X843993Y225925D01*
X844663Y226000D01*
X845337Y226000D01*
X846007Y225925D01*
X846664Y225775D01*
X847300Y225552D01*
X847907Y225260D01*
X848478Y224901D01*
X849004Y224481D01*
X849481Y224004D01*
X849901Y223478D01*
X850260Y222907D01*
X850552Y222300D01*
X850775Y221664D01*
X850925Y221007D01*
X851000Y220337D01*
X851000Y219663D01*
X850925Y218993D01*
X850775Y218336D01*
X850552Y217700D01*
X850260Y217093D01*
X849901Y216523D01*
X849481Y215996D01*
X849004Y215519D01*
X848478Y215099D01*
X847907Y214740D01*
X847300Y214448D01*
X846664Y214225D01*
X846007Y214075D01*
X845337Y214000D01*
X844663Y214000D01*
X843993Y214075D01*
X843336Y214225D01*
X842700Y214448D01*
X842093Y214740D01*
X841523Y215099D01*
X840996Y215519D01*
X840519Y215996D01*
X840099Y216523D01*
X839740Y217093D01*
X839448Y217700D01*
X839225Y218336D01*
X839075Y218993D01*
X839000Y219663D01*
X839000Y220337D01*
X789000Y170337D02*
X789075Y171007D01*
X789225Y171664D01*
X789448Y172300D01*
X789740Y172907D01*
X790099Y173478D01*
X790519Y174004D01*
X790996Y174481D01*
X791523Y174901D01*
X792093Y175260D01*
X792700Y175552D01*
X793336Y175775D01*
X793993Y175925D01*
X794663Y176000D01*
X795337Y176000D01*
X796007Y175925D01*
X796664Y175775D01*
X797300Y175552D01*
X797907Y175260D01*
X798478Y174901D01*
X799004Y174481D01*
X799481Y174004D01*
X799901Y173478D01*
X800260Y172907D01*
X800552Y172300D01*
X800775Y171664D01*
X800925Y171007D01*
X801000Y170337D01*
X801000Y169663D01*
X800925Y168993D01*
X800775Y168336D01*
X800552Y167700D01*
X800260Y167093D01*
X799901Y166523D01*
X799481Y165996D01*
X799004Y165519D01*
X798478Y165099D01*
X797907Y164740D01*
X797300Y164448D01*
X796664Y164225D01*
X796007Y164075D01*
X795337Y164000D01*
X794663Y164000D01*
X793993Y164075D01*
X793336Y164225D01*
X792700Y164448D01*
X792093Y164740D01*
X791523Y165099D01*
X790996Y165519D01*
X790519Y165996D01*
X790099Y166523D01*
X789740Y167093D01*
X789448Y167700D01*
X789225Y168336D01*
X789075Y168993D01*
X789000Y169663D01*
X789000Y170337D01*
M02*
