G04 EAGLE Gerber RS-274X export*
G75*
%MOMM*%
%FSLAX34Y34*%
%LPD*%
%INSilkscreen Top*%
%IPPOS*%
%AMOC8*
5,1,8,0,0,1.08239X$1,22.5*%
G01*
%ADD10C,0.330200*%
%ADD11C,0.203200*%
%ADD12C,0.127000*%
%ADD13C,0.076200*%


D10*
X125768Y709175D02*
X125765Y709397D01*
X125757Y709618D01*
X125744Y709840D01*
X125725Y710061D01*
X125701Y710281D01*
X125672Y710501D01*
X125637Y710720D01*
X125597Y710938D01*
X125552Y711155D01*
X125501Y711371D01*
X125446Y711585D01*
X125385Y711799D01*
X125319Y712010D01*
X125248Y712220D01*
X125172Y712428D01*
X125091Y712635D01*
X125005Y712839D01*
X124914Y713041D01*
X124818Y713241D01*
X124717Y713439D01*
X124612Y713634D01*
X124502Y713826D01*
X124387Y714016D01*
X124268Y714203D01*
X124144Y714387D01*
X124016Y714568D01*
X123883Y714746D01*
X123747Y714920D01*
X123606Y715091D01*
X123461Y715259D01*
X123312Y715423D01*
X123159Y715584D01*
X123002Y715741D01*
X122841Y715894D01*
X122677Y716043D01*
X122509Y716188D01*
X122338Y716329D01*
X122164Y716465D01*
X121986Y716598D01*
X121805Y716726D01*
X121621Y716850D01*
X121434Y716969D01*
X121244Y717084D01*
X121052Y717194D01*
X120857Y717299D01*
X120659Y717400D01*
X120459Y717496D01*
X120257Y717587D01*
X120053Y717673D01*
X119846Y717754D01*
X119638Y717830D01*
X119428Y717901D01*
X119217Y717967D01*
X119003Y718028D01*
X118789Y718083D01*
X118573Y718134D01*
X118356Y718179D01*
X118138Y718219D01*
X117919Y718254D01*
X117699Y718283D01*
X117479Y718307D01*
X117258Y718326D01*
X117036Y718339D01*
X116815Y718347D01*
X116593Y718350D01*
X116593Y718349D02*
X116308Y718346D01*
X116023Y718335D01*
X115739Y718318D01*
X115455Y718294D01*
X115171Y718263D01*
X114889Y718225D01*
X114607Y718180D01*
X114327Y718129D01*
X114048Y718071D01*
X113770Y718006D01*
X113494Y717934D01*
X113220Y717856D01*
X112948Y717771D01*
X112678Y717680D01*
X112410Y717582D01*
X112145Y717478D01*
X111882Y717367D01*
X111622Y717250D01*
X111365Y717126D01*
X111111Y716997D01*
X110861Y716861D01*
X110613Y716720D01*
X110369Y716572D01*
X110129Y716419D01*
X109893Y716259D01*
X109660Y716095D01*
X109432Y715924D01*
X109207Y715748D01*
X108987Y715567D01*
X108772Y715380D01*
X108561Y715189D01*
X108355Y714992D01*
X108153Y714790D01*
X107957Y714584D01*
X107765Y714373D01*
X107579Y714157D01*
X107398Y713937D01*
X107222Y713712D01*
X107052Y713483D01*
X106888Y713251D01*
X106729Y713014D01*
X106575Y712774D01*
X106428Y712529D01*
X106287Y712282D01*
X106152Y712031D01*
X106022Y711777D01*
X105899Y711520D01*
X105783Y711260D01*
X105672Y710997D01*
X105568Y710732D01*
X105471Y710464D01*
X105379Y710194D01*
X122710Y702039D02*
X122883Y702208D01*
X123052Y702381D01*
X123216Y702559D01*
X123376Y702740D01*
X123532Y702925D01*
X123683Y703114D01*
X123830Y703306D01*
X123971Y703502D01*
X124108Y703701D01*
X124240Y703904D01*
X124367Y704110D01*
X124488Y704319D01*
X124605Y704531D01*
X124716Y704745D01*
X124822Y704963D01*
X124923Y705183D01*
X125018Y705405D01*
X125108Y705629D01*
X125192Y705856D01*
X125271Y706085D01*
X125344Y706315D01*
X125411Y706547D01*
X125473Y706781D01*
X125529Y707016D01*
X125579Y707253D01*
X125623Y707491D01*
X125661Y707729D01*
X125694Y707969D01*
X125721Y708209D01*
X125741Y708450D01*
X125756Y708692D01*
X125765Y708933D01*
X125768Y709175D01*
X122710Y702039D02*
X105380Y681651D01*
X125768Y681651D01*
X135341Y695922D02*
X159807Y695922D01*
X177543Y681651D02*
X185698Y681651D01*
X177543Y681651D02*
X177346Y681653D01*
X177149Y681661D01*
X176952Y681672D01*
X176756Y681689D01*
X176560Y681710D01*
X176365Y681737D01*
X176170Y681767D01*
X175976Y681803D01*
X175783Y681843D01*
X175591Y681888D01*
X175401Y681937D01*
X175211Y681992D01*
X175023Y682050D01*
X174836Y682113D01*
X174651Y682181D01*
X174468Y682253D01*
X174286Y682330D01*
X174106Y682410D01*
X173929Y682496D01*
X173753Y682585D01*
X173580Y682679D01*
X173409Y682777D01*
X173240Y682879D01*
X173074Y682985D01*
X172910Y683095D01*
X172750Y683208D01*
X172592Y683326D01*
X172436Y683448D01*
X172284Y683573D01*
X172135Y683702D01*
X171989Y683834D01*
X171847Y683970D01*
X171707Y684110D01*
X171571Y684252D01*
X171439Y684398D01*
X171310Y684547D01*
X171185Y684699D01*
X171063Y684855D01*
X170945Y685013D01*
X170832Y685173D01*
X170722Y685337D01*
X170616Y685503D01*
X170514Y685672D01*
X170416Y685843D01*
X170322Y686016D01*
X170233Y686192D01*
X170147Y686369D01*
X170067Y686549D01*
X169990Y686731D01*
X169918Y686914D01*
X169850Y687099D01*
X169787Y687286D01*
X169729Y687474D01*
X169674Y687664D01*
X169625Y687854D01*
X169580Y688046D01*
X169540Y688239D01*
X169504Y688433D01*
X169474Y688628D01*
X169447Y688823D01*
X169426Y689019D01*
X169409Y689215D01*
X169398Y689412D01*
X169390Y689609D01*
X169388Y689806D01*
X169388Y710194D01*
X169390Y710394D01*
X169398Y710594D01*
X169410Y710794D01*
X169427Y710993D01*
X169449Y711192D01*
X169476Y711391D01*
X169508Y711588D01*
X169545Y711785D01*
X169586Y711981D01*
X169632Y712175D01*
X169683Y712369D01*
X169739Y712561D01*
X169800Y712752D01*
X169865Y712941D01*
X169934Y713129D01*
X170009Y713315D01*
X170088Y713499D01*
X170171Y713681D01*
X170259Y713861D01*
X170351Y714038D01*
X170447Y714214D01*
X170548Y714386D01*
X170653Y714557D01*
X170762Y714725D01*
X170876Y714890D01*
X170993Y715052D01*
X171114Y715211D01*
X171239Y715367D01*
X171368Y715521D01*
X171501Y715671D01*
X171637Y715817D01*
X171777Y715960D01*
X171920Y716100D01*
X172066Y716236D01*
X172216Y716369D01*
X172370Y716498D01*
X172526Y716623D01*
X172685Y716744D01*
X172847Y716861D01*
X173012Y716975D01*
X173180Y717084D01*
X173350Y717189D01*
X173523Y717290D01*
X173699Y717386D01*
X173876Y717478D01*
X174056Y717566D01*
X174238Y717649D01*
X174422Y717728D01*
X174608Y717803D01*
X174796Y717872D01*
X174985Y717937D01*
X175176Y717998D01*
X175368Y718054D01*
X175561Y718105D01*
X175756Y718151D01*
X175952Y718192D01*
X176149Y718229D01*
X176346Y718261D01*
X176545Y718288D01*
X176744Y718310D01*
X176943Y718327D01*
X177143Y718339D01*
X177343Y718347D01*
X177543Y718349D01*
X185698Y718349D01*
X195419Y718349D02*
X195419Y681651D01*
X195419Y706116D02*
X205613Y706116D01*
X205768Y706114D01*
X205923Y706108D01*
X206077Y706098D01*
X206232Y706085D01*
X206386Y706067D01*
X206539Y706045D01*
X206692Y706020D01*
X206844Y705991D01*
X206996Y705958D01*
X207146Y705921D01*
X207295Y705880D01*
X207444Y705836D01*
X207591Y705787D01*
X207737Y705735D01*
X207882Y705680D01*
X208025Y705620D01*
X208166Y705557D01*
X208306Y705491D01*
X208445Y705421D01*
X208581Y705348D01*
X208716Y705271D01*
X208848Y705190D01*
X208979Y705107D01*
X209107Y705020D01*
X209233Y704930D01*
X209357Y704836D01*
X209478Y704740D01*
X209597Y704641D01*
X209713Y704538D01*
X209827Y704433D01*
X209938Y704325D01*
X210046Y704214D01*
X210151Y704100D01*
X210254Y703984D01*
X210353Y703865D01*
X210449Y703744D01*
X210543Y703620D01*
X210633Y703494D01*
X210720Y703366D01*
X210803Y703235D01*
X210884Y703103D01*
X210960Y702968D01*
X211034Y702832D01*
X211104Y702693D01*
X211170Y702554D01*
X211233Y702412D01*
X211293Y702269D01*
X211348Y702124D01*
X211400Y701978D01*
X211449Y701831D01*
X211493Y701683D01*
X211534Y701533D01*
X211571Y701383D01*
X211604Y701231D01*
X211633Y701079D01*
X211658Y700926D01*
X211680Y700773D01*
X211698Y700619D01*
X211711Y700464D01*
X211721Y700310D01*
X211727Y700155D01*
X211729Y700000D01*
X211729Y681651D01*
X229577Y695922D02*
X238751Y695922D01*
X229577Y695923D02*
X229403Y695921D01*
X229230Y695915D01*
X229056Y695904D01*
X228883Y695889D01*
X228710Y695870D01*
X228538Y695847D01*
X228366Y695820D01*
X228195Y695788D01*
X228025Y695752D01*
X227856Y695712D01*
X227688Y695668D01*
X227521Y695620D01*
X227355Y695568D01*
X227191Y695512D01*
X227028Y695452D01*
X226866Y695388D01*
X226706Y695320D01*
X226548Y695248D01*
X226392Y695173D01*
X226237Y695093D01*
X226085Y695010D01*
X225934Y694923D01*
X225786Y694833D01*
X225640Y694738D01*
X225496Y694641D01*
X225354Y694540D01*
X225216Y694435D01*
X225079Y694327D01*
X224946Y694216D01*
X224815Y694102D01*
X224687Y693984D01*
X224562Y693864D01*
X224440Y693740D01*
X224321Y693613D01*
X224205Y693484D01*
X224092Y693352D01*
X223982Y693217D01*
X223876Y693079D01*
X223773Y692939D01*
X223674Y692797D01*
X223578Y692652D01*
X223486Y692504D01*
X223397Y692355D01*
X223312Y692203D01*
X223231Y692050D01*
X223153Y691894D01*
X223079Y691737D01*
X223009Y691578D01*
X222943Y691417D01*
X222881Y691255D01*
X222823Y691091D01*
X222769Y690926D01*
X222719Y690760D01*
X222673Y690592D01*
X222631Y690423D01*
X222593Y690254D01*
X222560Y690083D01*
X222530Y689912D01*
X222505Y689740D01*
X222484Y689567D01*
X222467Y689395D01*
X222454Y689221D01*
X222446Y689048D01*
X222442Y688874D01*
X222442Y688700D01*
X222446Y688526D01*
X222454Y688353D01*
X222467Y688179D01*
X222484Y688007D01*
X222505Y687834D01*
X222530Y687662D01*
X222560Y687491D01*
X222593Y687320D01*
X222631Y687151D01*
X222673Y686982D01*
X222719Y686814D01*
X222769Y686648D01*
X222823Y686483D01*
X222881Y686319D01*
X222943Y686157D01*
X223009Y685996D01*
X223079Y685837D01*
X223153Y685680D01*
X223231Y685524D01*
X223312Y685371D01*
X223397Y685219D01*
X223486Y685070D01*
X223578Y684922D01*
X223674Y684777D01*
X223773Y684635D01*
X223876Y684495D01*
X223982Y684357D01*
X224092Y684222D01*
X224205Y684090D01*
X224321Y683961D01*
X224440Y683834D01*
X224562Y683710D01*
X224687Y683590D01*
X224815Y683472D01*
X224946Y683358D01*
X225079Y683247D01*
X225216Y683139D01*
X225354Y683034D01*
X225496Y682933D01*
X225640Y682836D01*
X225786Y682741D01*
X225934Y682651D01*
X226085Y682564D01*
X226237Y682481D01*
X226392Y682401D01*
X226548Y682326D01*
X226706Y682254D01*
X226866Y682186D01*
X227028Y682122D01*
X227191Y682062D01*
X227355Y682006D01*
X227521Y681954D01*
X227688Y681906D01*
X227856Y681862D01*
X228025Y681822D01*
X228195Y681786D01*
X228366Y681754D01*
X228538Y681727D01*
X228710Y681704D01*
X228883Y681685D01*
X229056Y681670D01*
X229230Y681659D01*
X229403Y681653D01*
X229577Y681651D01*
X238751Y681651D01*
X238751Y700000D01*
X238749Y700155D01*
X238743Y700310D01*
X238733Y700464D01*
X238720Y700619D01*
X238702Y700773D01*
X238680Y700926D01*
X238655Y701079D01*
X238626Y701231D01*
X238593Y701383D01*
X238556Y701533D01*
X238515Y701682D01*
X238471Y701831D01*
X238422Y701978D01*
X238370Y702124D01*
X238315Y702269D01*
X238255Y702412D01*
X238192Y702553D01*
X238126Y702693D01*
X238056Y702832D01*
X237983Y702968D01*
X237906Y703103D01*
X237825Y703235D01*
X237742Y703366D01*
X237655Y703494D01*
X237565Y703620D01*
X237471Y703744D01*
X237375Y703865D01*
X237276Y703984D01*
X237173Y704100D01*
X237068Y704214D01*
X236960Y704325D01*
X236849Y704433D01*
X236735Y704538D01*
X236619Y704641D01*
X236500Y704740D01*
X236379Y704836D01*
X236255Y704930D01*
X236129Y705020D01*
X236001Y705107D01*
X235870Y705190D01*
X235738Y705271D01*
X235603Y705348D01*
X235467Y705421D01*
X235328Y705491D01*
X235188Y705557D01*
X235047Y705620D01*
X234904Y705680D01*
X234759Y705735D01*
X234613Y705787D01*
X234466Y705836D01*
X234317Y705880D01*
X234168Y705921D01*
X234018Y705958D01*
X233866Y705991D01*
X233714Y706020D01*
X233561Y706045D01*
X233408Y706067D01*
X233254Y706085D01*
X233099Y706098D01*
X232945Y706108D01*
X232790Y706114D01*
X232635Y706116D01*
X224480Y706116D01*
X250419Y706116D02*
X250419Y681651D01*
X250419Y706116D02*
X260613Y706116D01*
X260768Y706114D01*
X260923Y706108D01*
X261077Y706098D01*
X261232Y706085D01*
X261386Y706067D01*
X261539Y706045D01*
X261692Y706020D01*
X261844Y705991D01*
X261996Y705958D01*
X262146Y705921D01*
X262295Y705880D01*
X262444Y705836D01*
X262591Y705787D01*
X262737Y705735D01*
X262882Y705680D01*
X263025Y705620D01*
X263166Y705557D01*
X263306Y705491D01*
X263445Y705421D01*
X263581Y705348D01*
X263716Y705271D01*
X263848Y705190D01*
X263979Y705107D01*
X264107Y705020D01*
X264233Y704930D01*
X264357Y704836D01*
X264478Y704740D01*
X264597Y704641D01*
X264713Y704538D01*
X264827Y704433D01*
X264938Y704325D01*
X265046Y704214D01*
X265151Y704100D01*
X265254Y703984D01*
X265353Y703865D01*
X265449Y703744D01*
X265543Y703620D01*
X265633Y703494D01*
X265720Y703366D01*
X265803Y703235D01*
X265884Y703103D01*
X265960Y702968D01*
X266034Y702832D01*
X266104Y702693D01*
X266170Y702554D01*
X266233Y702412D01*
X266293Y702269D01*
X266348Y702124D01*
X266400Y701978D01*
X266449Y701831D01*
X266493Y701683D01*
X266534Y701533D01*
X266571Y701383D01*
X266604Y701231D01*
X266633Y701079D01*
X266658Y700926D01*
X266680Y700773D01*
X266698Y700619D01*
X266711Y700464D01*
X266721Y700310D01*
X266727Y700155D01*
X266729Y700000D01*
X266729Y681651D01*
X278419Y681651D02*
X278419Y706116D01*
X288613Y706116D01*
X288768Y706114D01*
X288923Y706108D01*
X289077Y706098D01*
X289232Y706085D01*
X289386Y706067D01*
X289539Y706045D01*
X289692Y706020D01*
X289844Y705991D01*
X289996Y705958D01*
X290146Y705921D01*
X290295Y705880D01*
X290444Y705836D01*
X290591Y705787D01*
X290737Y705735D01*
X290882Y705680D01*
X291025Y705620D01*
X291166Y705557D01*
X291306Y705491D01*
X291445Y705421D01*
X291581Y705348D01*
X291716Y705271D01*
X291848Y705190D01*
X291979Y705107D01*
X292107Y705020D01*
X292233Y704930D01*
X292357Y704836D01*
X292478Y704740D01*
X292597Y704641D01*
X292713Y704538D01*
X292827Y704433D01*
X292938Y704325D01*
X293046Y704214D01*
X293151Y704100D01*
X293254Y703984D01*
X293353Y703865D01*
X293449Y703744D01*
X293543Y703620D01*
X293633Y703494D01*
X293720Y703366D01*
X293803Y703235D01*
X293884Y703103D01*
X293960Y702968D01*
X294034Y702832D01*
X294104Y702693D01*
X294170Y702554D01*
X294233Y702412D01*
X294293Y702269D01*
X294348Y702124D01*
X294400Y701978D01*
X294449Y701831D01*
X294493Y701683D01*
X294534Y701533D01*
X294571Y701383D01*
X294604Y701231D01*
X294633Y701079D01*
X294658Y700926D01*
X294680Y700773D01*
X294698Y700619D01*
X294711Y700464D01*
X294721Y700310D01*
X294727Y700155D01*
X294729Y700000D01*
X294729Y681651D01*
X311535Y681651D02*
X321729Y681651D01*
X311535Y681651D02*
X311380Y681653D01*
X311225Y681659D01*
X311071Y681669D01*
X310916Y681682D01*
X310762Y681700D01*
X310609Y681722D01*
X310456Y681747D01*
X310304Y681776D01*
X310152Y681809D01*
X310002Y681846D01*
X309853Y681887D01*
X309704Y681931D01*
X309557Y681980D01*
X309411Y682032D01*
X309266Y682087D01*
X309123Y682147D01*
X308982Y682210D01*
X308842Y682276D01*
X308703Y682346D01*
X308567Y682419D01*
X308432Y682496D01*
X308300Y682577D01*
X308169Y682660D01*
X308041Y682747D01*
X307915Y682837D01*
X307791Y682931D01*
X307670Y683027D01*
X307551Y683126D01*
X307435Y683229D01*
X307321Y683334D01*
X307210Y683442D01*
X307102Y683553D01*
X306997Y683667D01*
X306894Y683783D01*
X306795Y683902D01*
X306699Y684023D01*
X306605Y684147D01*
X306515Y684273D01*
X306428Y684401D01*
X306345Y684532D01*
X306264Y684664D01*
X306187Y684799D01*
X306114Y684935D01*
X306044Y685074D01*
X305978Y685214D01*
X305915Y685355D01*
X305855Y685498D01*
X305800Y685643D01*
X305748Y685789D01*
X305699Y685936D01*
X305655Y686085D01*
X305614Y686234D01*
X305577Y686384D01*
X305544Y686536D01*
X305515Y686688D01*
X305490Y686841D01*
X305468Y686994D01*
X305450Y687148D01*
X305437Y687303D01*
X305427Y687457D01*
X305421Y687612D01*
X305419Y687767D01*
X305419Y697961D01*
X305421Y698160D01*
X305429Y698358D01*
X305441Y698556D01*
X305458Y698754D01*
X305479Y698952D01*
X305506Y699148D01*
X305537Y699344D01*
X305573Y699540D01*
X305614Y699734D01*
X305660Y699927D01*
X305710Y700120D01*
X305765Y700310D01*
X305824Y700500D01*
X305888Y700688D01*
X305957Y700874D01*
X306030Y701059D01*
X306108Y701242D01*
X306190Y701422D01*
X306277Y701601D01*
X306367Y701778D01*
X306462Y701952D01*
X306562Y702124D01*
X306665Y702294D01*
X306773Y702461D01*
X306884Y702625D01*
X307000Y702786D01*
X307119Y702945D01*
X307243Y703101D01*
X307370Y703253D01*
X307500Y703403D01*
X307635Y703549D01*
X307773Y703692D01*
X307914Y703832D01*
X308058Y703968D01*
X308206Y704100D01*
X308357Y704229D01*
X308512Y704354D01*
X308669Y704476D01*
X308829Y704593D01*
X308992Y704707D01*
X309157Y704817D01*
X309326Y704922D01*
X309497Y705023D01*
X309670Y705121D01*
X309845Y705214D01*
X310023Y705302D01*
X310203Y705387D01*
X310385Y705466D01*
X310568Y705542D01*
X310754Y705613D01*
X310941Y705679D01*
X311130Y705741D01*
X311320Y705798D01*
X311511Y705851D01*
X311704Y705899D01*
X311898Y705942D01*
X312093Y705980D01*
X312288Y706014D01*
X312485Y706043D01*
X312682Y706067D01*
X312880Y706086D01*
X313078Y706101D01*
X313276Y706111D01*
X313475Y706115D01*
X313673Y706115D01*
X313872Y706111D01*
X314070Y706101D01*
X314268Y706086D01*
X314466Y706067D01*
X314663Y706043D01*
X314860Y706014D01*
X315055Y705980D01*
X315250Y705942D01*
X315444Y705899D01*
X315637Y705851D01*
X315828Y705798D01*
X316018Y705741D01*
X316207Y705679D01*
X316394Y705613D01*
X316580Y705542D01*
X316763Y705466D01*
X316945Y705387D01*
X317125Y705302D01*
X317303Y705214D01*
X317478Y705121D01*
X317652Y705023D01*
X317822Y704922D01*
X317991Y704817D01*
X318156Y704707D01*
X318319Y704593D01*
X318479Y704476D01*
X318636Y704354D01*
X318791Y704229D01*
X318942Y704100D01*
X319090Y703968D01*
X319234Y703832D01*
X319375Y703692D01*
X319513Y703549D01*
X319648Y703403D01*
X319778Y703253D01*
X319905Y703101D01*
X320029Y702945D01*
X320148Y702786D01*
X320264Y702625D01*
X320375Y702461D01*
X320483Y702294D01*
X320586Y702124D01*
X320686Y701952D01*
X320781Y701778D01*
X320871Y701601D01*
X320958Y701422D01*
X321040Y701242D01*
X321118Y701059D01*
X321191Y700874D01*
X321260Y700688D01*
X321324Y700500D01*
X321383Y700310D01*
X321438Y700120D01*
X321488Y699927D01*
X321534Y699734D01*
X321575Y699540D01*
X321611Y699344D01*
X321642Y699148D01*
X321669Y698952D01*
X321690Y698754D01*
X321707Y698556D01*
X321719Y698358D01*
X321727Y698160D01*
X321729Y697961D01*
X321729Y693884D01*
X305419Y693884D01*
X332496Y687767D02*
X332496Y718349D01*
X332496Y687767D02*
X332498Y687612D01*
X332504Y687457D01*
X332514Y687303D01*
X332527Y687148D01*
X332545Y686994D01*
X332567Y686841D01*
X332592Y686688D01*
X332621Y686536D01*
X332654Y686384D01*
X332691Y686234D01*
X332732Y686085D01*
X332776Y685936D01*
X332825Y685789D01*
X332877Y685643D01*
X332932Y685498D01*
X332992Y685355D01*
X333055Y685214D01*
X333121Y685074D01*
X333191Y684935D01*
X333264Y684799D01*
X333341Y684664D01*
X333422Y684532D01*
X333505Y684401D01*
X333592Y684273D01*
X333682Y684147D01*
X333776Y684023D01*
X333872Y683902D01*
X333971Y683783D01*
X334074Y683667D01*
X334179Y683553D01*
X334287Y683442D01*
X334398Y683334D01*
X334512Y683229D01*
X334628Y683126D01*
X334747Y683027D01*
X334868Y682931D01*
X334992Y682837D01*
X335118Y682747D01*
X335246Y682660D01*
X335377Y682577D01*
X335509Y682496D01*
X335644Y682419D01*
X335780Y682346D01*
X335919Y682276D01*
X336059Y682210D01*
X336200Y682147D01*
X336343Y682087D01*
X336488Y682032D01*
X336634Y681980D01*
X336781Y681931D01*
X336930Y681887D01*
X337079Y681846D01*
X337229Y681809D01*
X337381Y681776D01*
X337533Y681747D01*
X337686Y681722D01*
X337839Y681700D01*
X337993Y681682D01*
X338148Y681669D01*
X338302Y681659D01*
X338457Y681653D01*
X338612Y681651D01*
X364396Y669418D02*
X364396Y706116D01*
X374590Y706116D01*
X374745Y706114D01*
X374900Y706108D01*
X375054Y706098D01*
X375209Y706085D01*
X375363Y706067D01*
X375516Y706045D01*
X375669Y706020D01*
X375821Y705991D01*
X375973Y705958D01*
X376123Y705921D01*
X376272Y705880D01*
X376421Y705836D01*
X376568Y705787D01*
X376714Y705735D01*
X376859Y705680D01*
X377002Y705620D01*
X377143Y705557D01*
X377283Y705491D01*
X377422Y705421D01*
X377558Y705348D01*
X377693Y705271D01*
X377825Y705190D01*
X377956Y705107D01*
X378084Y705020D01*
X378210Y704930D01*
X378334Y704836D01*
X378455Y704740D01*
X378574Y704641D01*
X378690Y704538D01*
X378804Y704433D01*
X378915Y704325D01*
X379023Y704214D01*
X379128Y704100D01*
X379231Y703984D01*
X379330Y703865D01*
X379426Y703744D01*
X379520Y703620D01*
X379610Y703494D01*
X379697Y703366D01*
X379780Y703235D01*
X379861Y703103D01*
X379937Y702968D01*
X380011Y702832D01*
X380081Y702693D01*
X380147Y702554D01*
X380210Y702412D01*
X380270Y702269D01*
X380325Y702124D01*
X380377Y701978D01*
X380426Y701831D01*
X380470Y701683D01*
X380511Y701533D01*
X380548Y701383D01*
X380581Y701231D01*
X380610Y701079D01*
X380635Y700926D01*
X380657Y700773D01*
X380675Y700619D01*
X380688Y700464D01*
X380698Y700310D01*
X380704Y700155D01*
X380706Y700000D01*
X380707Y700000D02*
X380707Y687767D01*
X380706Y687767D02*
X380704Y687612D01*
X380698Y687457D01*
X380688Y687303D01*
X380675Y687148D01*
X380657Y686994D01*
X380635Y686841D01*
X380610Y686688D01*
X380581Y686536D01*
X380548Y686384D01*
X380511Y686234D01*
X380470Y686085D01*
X380426Y685936D01*
X380377Y685789D01*
X380325Y685643D01*
X380270Y685498D01*
X380210Y685355D01*
X380147Y685214D01*
X380081Y685074D01*
X380011Y684935D01*
X379938Y684799D01*
X379861Y684664D01*
X379780Y684532D01*
X379697Y684401D01*
X379610Y684273D01*
X379520Y684147D01*
X379426Y684023D01*
X379330Y683902D01*
X379231Y683783D01*
X379128Y683667D01*
X379023Y683553D01*
X378915Y683442D01*
X378804Y683334D01*
X378690Y683229D01*
X378574Y683126D01*
X378455Y683027D01*
X378334Y682931D01*
X378210Y682837D01*
X378084Y682747D01*
X377956Y682660D01*
X377825Y682577D01*
X377693Y682496D01*
X377558Y682419D01*
X377422Y682346D01*
X377283Y682276D01*
X377143Y682210D01*
X377002Y682147D01*
X376859Y682087D01*
X376714Y682032D01*
X376568Y681980D01*
X376421Y681931D01*
X376272Y681887D01*
X376123Y681846D01*
X375973Y681809D01*
X375821Y681776D01*
X375669Y681747D01*
X375516Y681722D01*
X375363Y681700D01*
X375209Y681682D01*
X375054Y681669D01*
X374900Y681659D01*
X374745Y681653D01*
X374590Y681651D01*
X364396Y681651D01*
X397576Y695922D02*
X406751Y695922D01*
X397576Y695923D02*
X397402Y695921D01*
X397229Y695915D01*
X397055Y695904D01*
X396882Y695889D01*
X396709Y695870D01*
X396537Y695847D01*
X396365Y695820D01*
X396194Y695788D01*
X396024Y695752D01*
X395855Y695712D01*
X395687Y695668D01*
X395520Y695620D01*
X395354Y695568D01*
X395190Y695512D01*
X395027Y695452D01*
X394865Y695388D01*
X394705Y695320D01*
X394547Y695248D01*
X394391Y695173D01*
X394236Y695093D01*
X394084Y695010D01*
X393933Y694923D01*
X393785Y694833D01*
X393639Y694738D01*
X393495Y694641D01*
X393353Y694540D01*
X393215Y694435D01*
X393078Y694327D01*
X392945Y694216D01*
X392814Y694102D01*
X392686Y693984D01*
X392561Y693864D01*
X392439Y693740D01*
X392320Y693613D01*
X392204Y693484D01*
X392091Y693352D01*
X391981Y693217D01*
X391875Y693079D01*
X391772Y692939D01*
X391673Y692797D01*
X391577Y692652D01*
X391485Y692504D01*
X391396Y692355D01*
X391311Y692203D01*
X391230Y692050D01*
X391152Y691894D01*
X391078Y691737D01*
X391008Y691578D01*
X390942Y691417D01*
X390880Y691255D01*
X390822Y691091D01*
X390768Y690926D01*
X390718Y690760D01*
X390672Y690592D01*
X390630Y690423D01*
X390592Y690254D01*
X390559Y690083D01*
X390529Y689912D01*
X390504Y689740D01*
X390483Y689567D01*
X390466Y689395D01*
X390453Y689221D01*
X390445Y689048D01*
X390441Y688874D01*
X390441Y688700D01*
X390445Y688526D01*
X390453Y688353D01*
X390466Y688179D01*
X390483Y688007D01*
X390504Y687834D01*
X390529Y687662D01*
X390559Y687491D01*
X390592Y687320D01*
X390630Y687151D01*
X390672Y686982D01*
X390718Y686814D01*
X390768Y686648D01*
X390822Y686483D01*
X390880Y686319D01*
X390942Y686157D01*
X391008Y685996D01*
X391078Y685837D01*
X391152Y685680D01*
X391230Y685524D01*
X391311Y685371D01*
X391396Y685219D01*
X391485Y685070D01*
X391577Y684922D01*
X391673Y684777D01*
X391772Y684635D01*
X391875Y684495D01*
X391981Y684357D01*
X392091Y684222D01*
X392204Y684090D01*
X392320Y683961D01*
X392439Y683834D01*
X392561Y683710D01*
X392686Y683590D01*
X392814Y683472D01*
X392945Y683358D01*
X393078Y683247D01*
X393215Y683139D01*
X393353Y683034D01*
X393495Y682933D01*
X393639Y682836D01*
X393785Y682741D01*
X393933Y682651D01*
X394084Y682564D01*
X394236Y682481D01*
X394391Y682401D01*
X394547Y682326D01*
X394705Y682254D01*
X394865Y682186D01*
X395027Y682122D01*
X395190Y682062D01*
X395354Y682006D01*
X395520Y681954D01*
X395687Y681906D01*
X395855Y681862D01*
X396024Y681822D01*
X396194Y681786D01*
X396365Y681754D01*
X396537Y681727D01*
X396709Y681704D01*
X396882Y681685D01*
X397055Y681670D01*
X397229Y681659D01*
X397402Y681653D01*
X397576Y681651D01*
X406751Y681651D01*
X406751Y700000D01*
X406749Y700155D01*
X406743Y700310D01*
X406733Y700464D01*
X406720Y700619D01*
X406702Y700773D01*
X406680Y700926D01*
X406655Y701079D01*
X406626Y701231D01*
X406593Y701383D01*
X406556Y701533D01*
X406515Y701682D01*
X406471Y701831D01*
X406422Y701978D01*
X406370Y702124D01*
X406315Y702269D01*
X406255Y702412D01*
X406192Y702553D01*
X406126Y702693D01*
X406056Y702832D01*
X405983Y702968D01*
X405906Y703103D01*
X405825Y703235D01*
X405742Y703366D01*
X405655Y703494D01*
X405565Y703620D01*
X405471Y703744D01*
X405375Y703865D01*
X405276Y703984D01*
X405173Y704100D01*
X405068Y704214D01*
X404960Y704325D01*
X404849Y704433D01*
X404735Y704538D01*
X404619Y704641D01*
X404500Y704740D01*
X404379Y704836D01*
X404255Y704930D01*
X404129Y705020D01*
X404001Y705107D01*
X403870Y705190D01*
X403738Y705271D01*
X403603Y705348D01*
X403467Y705421D01*
X403328Y705491D01*
X403188Y705557D01*
X403047Y705620D01*
X402904Y705680D01*
X402759Y705735D01*
X402613Y705787D01*
X402466Y705836D01*
X402317Y705880D01*
X402168Y705921D01*
X402018Y705958D01*
X401866Y705991D01*
X401714Y706020D01*
X401561Y706045D01*
X401408Y706067D01*
X401254Y706085D01*
X401099Y706098D01*
X400945Y706108D01*
X400790Y706114D01*
X400635Y706116D01*
X392479Y706116D01*
X420477Y695922D02*
X430671Y691845D01*
X420477Y695923D02*
X420344Y695978D01*
X420213Y696037D01*
X420083Y696099D01*
X419955Y696165D01*
X419829Y696235D01*
X419705Y696307D01*
X419583Y696383D01*
X419463Y696463D01*
X419346Y696545D01*
X419230Y696631D01*
X419117Y696720D01*
X419006Y696812D01*
X418898Y696907D01*
X418793Y697005D01*
X418690Y697105D01*
X418590Y697209D01*
X418493Y697315D01*
X418399Y697424D01*
X418308Y697535D01*
X418219Y697648D01*
X418134Y697764D01*
X418053Y697883D01*
X417974Y698003D01*
X417899Y698126D01*
X417827Y698250D01*
X417758Y698377D01*
X417693Y698505D01*
X417632Y698635D01*
X417574Y698767D01*
X417519Y698900D01*
X417469Y699034D01*
X417422Y699170D01*
X417378Y699307D01*
X417339Y699446D01*
X417303Y699585D01*
X417271Y699725D01*
X417243Y699866D01*
X417218Y700008D01*
X417198Y700150D01*
X417181Y700293D01*
X417169Y700437D01*
X417160Y700580D01*
X417155Y700724D01*
X417154Y700868D01*
X417157Y701011D01*
X417164Y701155D01*
X417175Y701299D01*
X417189Y701442D01*
X417208Y701584D01*
X417230Y701726D01*
X417257Y701868D01*
X417287Y702008D01*
X417321Y702148D01*
X417358Y702287D01*
X417400Y702425D01*
X417445Y702561D01*
X417494Y702696D01*
X417547Y702830D01*
X417603Y702963D01*
X417663Y703093D01*
X417726Y703223D01*
X417793Y703350D01*
X417863Y703475D01*
X417937Y703599D01*
X418014Y703720D01*
X418094Y703840D01*
X418177Y703957D01*
X418264Y704072D01*
X418354Y704184D01*
X418446Y704294D01*
X418542Y704401D01*
X418641Y704506D01*
X418742Y704608D01*
X418846Y704707D01*
X418953Y704804D01*
X419062Y704897D01*
X419174Y704988D01*
X419289Y705075D01*
X419405Y705159D01*
X419524Y705240D01*
X419645Y705318D01*
X419768Y705392D01*
X419893Y705463D01*
X420020Y705531D01*
X420149Y705595D01*
X420279Y705655D01*
X420411Y705712D01*
X420545Y705766D01*
X420680Y705815D01*
X420816Y705861D01*
X420954Y705904D01*
X421092Y705942D01*
X421232Y705977D01*
X421372Y706008D01*
X421514Y706035D01*
X421655Y706058D01*
X421798Y706078D01*
X421941Y706093D01*
X422084Y706105D01*
X422228Y706113D01*
X422372Y706117D01*
X422516Y706116D01*
X422516Y706117D02*
X423072Y706102D01*
X423628Y706074D01*
X424183Y706033D01*
X424737Y705978D01*
X425290Y705910D01*
X425841Y705829D01*
X426389Y705734D01*
X426936Y705626D01*
X427479Y705506D01*
X428019Y705372D01*
X428556Y705225D01*
X429090Y705065D01*
X429619Y704893D01*
X430144Y704708D01*
X430664Y704510D01*
X431180Y704300D01*
X431690Y704078D01*
X430670Y691845D02*
X430803Y691790D01*
X430934Y691731D01*
X431064Y691669D01*
X431192Y691603D01*
X431318Y691533D01*
X431442Y691461D01*
X431564Y691385D01*
X431684Y691305D01*
X431802Y691223D01*
X431917Y691137D01*
X432030Y691048D01*
X432141Y690956D01*
X432249Y690861D01*
X432354Y690763D01*
X432457Y690663D01*
X432557Y690559D01*
X432654Y690453D01*
X432748Y690344D01*
X432839Y690233D01*
X432928Y690120D01*
X433013Y690004D01*
X433094Y689885D01*
X433173Y689765D01*
X433248Y689642D01*
X433320Y689518D01*
X433389Y689391D01*
X433454Y689263D01*
X433515Y689133D01*
X433573Y689001D01*
X433628Y688868D01*
X433678Y688734D01*
X433725Y688598D01*
X433769Y688461D01*
X433808Y688322D01*
X433844Y688183D01*
X433876Y688043D01*
X433904Y687902D01*
X433929Y687760D01*
X433949Y687618D01*
X433966Y687475D01*
X433978Y687331D01*
X433987Y687188D01*
X433992Y687044D01*
X433993Y686900D01*
X433990Y686757D01*
X433983Y686613D01*
X433972Y686469D01*
X433958Y686326D01*
X433939Y686184D01*
X433917Y686042D01*
X433890Y685900D01*
X433860Y685760D01*
X433826Y685620D01*
X433789Y685481D01*
X433747Y685343D01*
X433702Y685207D01*
X433653Y685072D01*
X433600Y684938D01*
X433544Y684805D01*
X433484Y684675D01*
X433421Y684545D01*
X433354Y684418D01*
X433284Y684293D01*
X433210Y684169D01*
X433133Y684048D01*
X433053Y683928D01*
X432970Y683811D01*
X432883Y683696D01*
X432793Y683584D01*
X432701Y683474D01*
X432605Y683367D01*
X432506Y683262D01*
X432405Y683160D01*
X432301Y683061D01*
X432194Y682964D01*
X432085Y682871D01*
X431973Y682780D01*
X431858Y682693D01*
X431742Y682609D01*
X431623Y682528D01*
X431502Y682450D01*
X431379Y682376D01*
X431254Y682305D01*
X431127Y682237D01*
X430998Y682173D01*
X430868Y682113D01*
X430736Y682056D01*
X430602Y682002D01*
X430467Y681953D01*
X430331Y681907D01*
X430193Y681864D01*
X430055Y681826D01*
X429915Y681791D01*
X429775Y681760D01*
X429633Y681733D01*
X429492Y681710D01*
X429349Y681690D01*
X429206Y681675D01*
X429063Y681663D01*
X428919Y681655D01*
X428775Y681651D01*
X428632Y681652D01*
X427815Y681673D01*
X426998Y681714D01*
X426182Y681774D01*
X425368Y681853D01*
X424557Y681951D01*
X423747Y682069D01*
X422941Y682206D01*
X422138Y682361D01*
X421339Y682536D01*
X420545Y682730D01*
X419755Y682942D01*
X418970Y683173D01*
X418192Y683422D01*
X417419Y683690D01*
X446477Y695922D02*
X456671Y691845D01*
X446477Y695923D02*
X446344Y695978D01*
X446213Y696037D01*
X446083Y696099D01*
X445955Y696165D01*
X445829Y696235D01*
X445705Y696307D01*
X445583Y696383D01*
X445463Y696463D01*
X445346Y696545D01*
X445230Y696631D01*
X445117Y696720D01*
X445006Y696812D01*
X444898Y696907D01*
X444793Y697005D01*
X444690Y697105D01*
X444590Y697209D01*
X444493Y697315D01*
X444399Y697424D01*
X444308Y697535D01*
X444219Y697648D01*
X444134Y697764D01*
X444053Y697883D01*
X443974Y698003D01*
X443899Y698126D01*
X443827Y698250D01*
X443758Y698377D01*
X443693Y698505D01*
X443632Y698635D01*
X443574Y698767D01*
X443519Y698900D01*
X443469Y699034D01*
X443422Y699170D01*
X443378Y699307D01*
X443339Y699446D01*
X443303Y699585D01*
X443271Y699725D01*
X443243Y699866D01*
X443218Y700008D01*
X443198Y700150D01*
X443181Y700293D01*
X443169Y700437D01*
X443160Y700580D01*
X443155Y700724D01*
X443154Y700868D01*
X443157Y701011D01*
X443164Y701155D01*
X443175Y701299D01*
X443189Y701442D01*
X443208Y701584D01*
X443230Y701726D01*
X443257Y701868D01*
X443287Y702008D01*
X443321Y702148D01*
X443358Y702287D01*
X443400Y702425D01*
X443445Y702561D01*
X443494Y702696D01*
X443547Y702830D01*
X443603Y702963D01*
X443663Y703093D01*
X443726Y703223D01*
X443793Y703350D01*
X443863Y703475D01*
X443937Y703599D01*
X444014Y703720D01*
X444094Y703840D01*
X444177Y703957D01*
X444264Y704072D01*
X444354Y704184D01*
X444446Y704294D01*
X444542Y704401D01*
X444641Y704506D01*
X444742Y704608D01*
X444846Y704707D01*
X444953Y704804D01*
X445062Y704897D01*
X445174Y704988D01*
X445289Y705075D01*
X445405Y705159D01*
X445524Y705240D01*
X445645Y705318D01*
X445768Y705392D01*
X445893Y705463D01*
X446020Y705531D01*
X446149Y705595D01*
X446279Y705655D01*
X446411Y705712D01*
X446545Y705766D01*
X446680Y705815D01*
X446816Y705861D01*
X446954Y705904D01*
X447092Y705942D01*
X447232Y705977D01*
X447372Y706008D01*
X447514Y706035D01*
X447655Y706058D01*
X447798Y706078D01*
X447941Y706093D01*
X448084Y706105D01*
X448228Y706113D01*
X448372Y706117D01*
X448516Y706116D01*
X448516Y706117D02*
X449072Y706102D01*
X449628Y706074D01*
X450183Y706033D01*
X450737Y705978D01*
X451290Y705910D01*
X451841Y705829D01*
X452389Y705734D01*
X452936Y705626D01*
X453479Y705506D01*
X454019Y705372D01*
X454556Y705225D01*
X455090Y705065D01*
X455619Y704893D01*
X456144Y704708D01*
X456664Y704510D01*
X457180Y704300D01*
X457690Y704078D01*
X456670Y691845D02*
X456803Y691790D01*
X456934Y691731D01*
X457064Y691669D01*
X457192Y691603D01*
X457318Y691533D01*
X457442Y691461D01*
X457564Y691385D01*
X457684Y691305D01*
X457802Y691223D01*
X457917Y691137D01*
X458030Y691048D01*
X458141Y690956D01*
X458249Y690861D01*
X458354Y690763D01*
X458457Y690663D01*
X458557Y690559D01*
X458654Y690453D01*
X458748Y690344D01*
X458839Y690233D01*
X458928Y690120D01*
X459013Y690004D01*
X459094Y689885D01*
X459173Y689765D01*
X459248Y689642D01*
X459320Y689518D01*
X459389Y689391D01*
X459454Y689263D01*
X459515Y689133D01*
X459573Y689001D01*
X459628Y688868D01*
X459678Y688734D01*
X459725Y688598D01*
X459769Y688461D01*
X459808Y688322D01*
X459844Y688183D01*
X459876Y688043D01*
X459904Y687902D01*
X459929Y687760D01*
X459949Y687618D01*
X459966Y687475D01*
X459978Y687331D01*
X459987Y687188D01*
X459992Y687044D01*
X459993Y686900D01*
X459990Y686757D01*
X459983Y686613D01*
X459972Y686469D01*
X459958Y686326D01*
X459939Y686184D01*
X459917Y686042D01*
X459890Y685900D01*
X459860Y685760D01*
X459826Y685620D01*
X459789Y685481D01*
X459747Y685343D01*
X459702Y685207D01*
X459653Y685072D01*
X459600Y684938D01*
X459544Y684805D01*
X459484Y684675D01*
X459421Y684545D01*
X459354Y684418D01*
X459284Y684293D01*
X459210Y684169D01*
X459133Y684048D01*
X459053Y683928D01*
X458970Y683811D01*
X458883Y683696D01*
X458793Y683584D01*
X458701Y683474D01*
X458605Y683367D01*
X458506Y683262D01*
X458405Y683160D01*
X458301Y683061D01*
X458194Y682964D01*
X458085Y682871D01*
X457973Y682780D01*
X457858Y682693D01*
X457742Y682609D01*
X457623Y682528D01*
X457502Y682450D01*
X457379Y682376D01*
X457254Y682305D01*
X457127Y682237D01*
X456998Y682173D01*
X456868Y682113D01*
X456736Y682056D01*
X456602Y682002D01*
X456467Y681953D01*
X456331Y681907D01*
X456193Y681864D01*
X456055Y681826D01*
X455915Y681791D01*
X455775Y681760D01*
X455633Y681733D01*
X455492Y681710D01*
X455349Y681690D01*
X455206Y681675D01*
X455063Y681663D01*
X454919Y681655D01*
X454775Y681651D01*
X454632Y681652D01*
X453815Y681673D01*
X452998Y681714D01*
X452182Y681774D01*
X451368Y681853D01*
X450557Y681951D01*
X449747Y682069D01*
X448941Y682206D01*
X448138Y682361D01*
X447339Y682536D01*
X446545Y682730D01*
X445755Y682942D01*
X444970Y683173D01*
X444192Y683422D01*
X443419Y683690D01*
X470574Y681651D02*
X470574Y706116D01*
X469554Y716310D02*
X469554Y718349D01*
X471593Y718349D01*
X471593Y716310D01*
X469554Y716310D01*
X480419Y706116D02*
X488574Y681651D01*
X496729Y706116D01*
X511535Y681651D02*
X521729Y681651D01*
X511535Y681651D02*
X511380Y681653D01*
X511225Y681659D01*
X511071Y681669D01*
X510916Y681682D01*
X510762Y681700D01*
X510609Y681722D01*
X510456Y681747D01*
X510304Y681776D01*
X510152Y681809D01*
X510002Y681846D01*
X509853Y681887D01*
X509704Y681931D01*
X509557Y681980D01*
X509411Y682032D01*
X509266Y682087D01*
X509123Y682147D01*
X508982Y682210D01*
X508842Y682276D01*
X508703Y682346D01*
X508567Y682419D01*
X508432Y682496D01*
X508300Y682577D01*
X508169Y682660D01*
X508041Y682747D01*
X507915Y682837D01*
X507791Y682931D01*
X507670Y683027D01*
X507551Y683126D01*
X507435Y683229D01*
X507321Y683334D01*
X507210Y683442D01*
X507102Y683553D01*
X506997Y683667D01*
X506894Y683783D01*
X506795Y683902D01*
X506699Y684023D01*
X506605Y684147D01*
X506515Y684273D01*
X506428Y684401D01*
X506345Y684532D01*
X506264Y684664D01*
X506187Y684799D01*
X506114Y684935D01*
X506044Y685074D01*
X505978Y685214D01*
X505915Y685355D01*
X505855Y685498D01*
X505800Y685643D01*
X505748Y685789D01*
X505699Y685936D01*
X505655Y686085D01*
X505614Y686234D01*
X505577Y686384D01*
X505544Y686536D01*
X505515Y686688D01*
X505490Y686841D01*
X505468Y686994D01*
X505450Y687148D01*
X505437Y687303D01*
X505427Y687457D01*
X505421Y687612D01*
X505419Y687767D01*
X505419Y697961D01*
X505421Y698160D01*
X505429Y698358D01*
X505441Y698556D01*
X505458Y698754D01*
X505479Y698952D01*
X505506Y699148D01*
X505537Y699344D01*
X505573Y699540D01*
X505614Y699734D01*
X505660Y699927D01*
X505710Y700120D01*
X505765Y700310D01*
X505824Y700500D01*
X505888Y700688D01*
X505957Y700874D01*
X506030Y701059D01*
X506108Y701242D01*
X506190Y701422D01*
X506277Y701601D01*
X506367Y701778D01*
X506462Y701952D01*
X506562Y702124D01*
X506665Y702294D01*
X506773Y702461D01*
X506884Y702625D01*
X507000Y702786D01*
X507119Y702945D01*
X507243Y703101D01*
X507370Y703253D01*
X507500Y703403D01*
X507635Y703549D01*
X507773Y703692D01*
X507914Y703832D01*
X508058Y703968D01*
X508206Y704100D01*
X508357Y704229D01*
X508512Y704354D01*
X508669Y704476D01*
X508829Y704593D01*
X508992Y704707D01*
X509157Y704817D01*
X509326Y704922D01*
X509497Y705023D01*
X509670Y705121D01*
X509845Y705214D01*
X510023Y705302D01*
X510203Y705387D01*
X510385Y705466D01*
X510568Y705542D01*
X510754Y705613D01*
X510941Y705679D01*
X511130Y705741D01*
X511320Y705798D01*
X511511Y705851D01*
X511704Y705899D01*
X511898Y705942D01*
X512093Y705980D01*
X512288Y706014D01*
X512485Y706043D01*
X512682Y706067D01*
X512880Y706086D01*
X513078Y706101D01*
X513276Y706111D01*
X513475Y706115D01*
X513673Y706115D01*
X513872Y706111D01*
X514070Y706101D01*
X514268Y706086D01*
X514466Y706067D01*
X514663Y706043D01*
X514860Y706014D01*
X515055Y705980D01*
X515250Y705942D01*
X515444Y705899D01*
X515637Y705851D01*
X515828Y705798D01*
X516018Y705741D01*
X516207Y705679D01*
X516394Y705613D01*
X516580Y705542D01*
X516763Y705466D01*
X516945Y705387D01*
X517125Y705302D01*
X517303Y705214D01*
X517478Y705121D01*
X517652Y705023D01*
X517822Y704922D01*
X517991Y704817D01*
X518156Y704707D01*
X518319Y704593D01*
X518479Y704476D01*
X518636Y704354D01*
X518791Y704229D01*
X518942Y704100D01*
X519090Y703968D01*
X519234Y703832D01*
X519375Y703692D01*
X519513Y703549D01*
X519648Y703403D01*
X519778Y703253D01*
X519905Y703101D01*
X520029Y702945D01*
X520148Y702786D01*
X520264Y702625D01*
X520375Y702461D01*
X520483Y702294D01*
X520586Y702124D01*
X520686Y701952D01*
X520781Y701778D01*
X520871Y701601D01*
X520958Y701422D01*
X521040Y701242D01*
X521118Y701059D01*
X521191Y700874D01*
X521260Y700688D01*
X521324Y700500D01*
X521383Y700310D01*
X521438Y700120D01*
X521488Y699927D01*
X521534Y699734D01*
X521575Y699540D01*
X521611Y699344D01*
X521642Y699148D01*
X521669Y698952D01*
X521690Y698754D01*
X521707Y698556D01*
X521719Y698358D01*
X521727Y698160D01*
X521729Y697961D01*
X521729Y693884D01*
X505419Y693884D01*
X554576Y695922D02*
X563751Y695922D01*
X554576Y695923D02*
X554402Y695921D01*
X554229Y695915D01*
X554055Y695904D01*
X553882Y695889D01*
X553709Y695870D01*
X553537Y695847D01*
X553365Y695820D01*
X553194Y695788D01*
X553024Y695752D01*
X552855Y695712D01*
X552687Y695668D01*
X552520Y695620D01*
X552354Y695568D01*
X552190Y695512D01*
X552027Y695452D01*
X551865Y695388D01*
X551705Y695320D01*
X551547Y695248D01*
X551391Y695173D01*
X551236Y695093D01*
X551084Y695010D01*
X550933Y694923D01*
X550785Y694833D01*
X550639Y694738D01*
X550495Y694641D01*
X550353Y694540D01*
X550215Y694435D01*
X550078Y694327D01*
X549945Y694216D01*
X549814Y694102D01*
X549686Y693984D01*
X549561Y693864D01*
X549439Y693740D01*
X549320Y693613D01*
X549204Y693484D01*
X549091Y693352D01*
X548981Y693217D01*
X548875Y693079D01*
X548772Y692939D01*
X548673Y692797D01*
X548577Y692652D01*
X548485Y692504D01*
X548396Y692355D01*
X548311Y692203D01*
X548230Y692050D01*
X548152Y691894D01*
X548078Y691737D01*
X548008Y691578D01*
X547942Y691417D01*
X547880Y691255D01*
X547822Y691091D01*
X547768Y690926D01*
X547718Y690760D01*
X547672Y690592D01*
X547630Y690423D01*
X547592Y690254D01*
X547559Y690083D01*
X547529Y689912D01*
X547504Y689740D01*
X547483Y689567D01*
X547466Y689395D01*
X547453Y689221D01*
X547445Y689048D01*
X547441Y688874D01*
X547441Y688700D01*
X547445Y688526D01*
X547453Y688353D01*
X547466Y688179D01*
X547483Y688007D01*
X547504Y687834D01*
X547529Y687662D01*
X547559Y687491D01*
X547592Y687320D01*
X547630Y687151D01*
X547672Y686982D01*
X547718Y686814D01*
X547768Y686648D01*
X547822Y686483D01*
X547880Y686319D01*
X547942Y686157D01*
X548008Y685996D01*
X548078Y685837D01*
X548152Y685680D01*
X548230Y685524D01*
X548311Y685371D01*
X548396Y685219D01*
X548485Y685070D01*
X548577Y684922D01*
X548673Y684777D01*
X548772Y684635D01*
X548875Y684495D01*
X548981Y684357D01*
X549091Y684222D01*
X549204Y684090D01*
X549320Y683961D01*
X549439Y683834D01*
X549561Y683710D01*
X549686Y683590D01*
X549814Y683472D01*
X549945Y683358D01*
X550078Y683247D01*
X550215Y683139D01*
X550353Y683034D01*
X550495Y682933D01*
X550639Y682836D01*
X550785Y682741D01*
X550933Y682651D01*
X551084Y682564D01*
X551236Y682481D01*
X551391Y682401D01*
X551547Y682326D01*
X551705Y682254D01*
X551865Y682186D01*
X552027Y682122D01*
X552190Y682062D01*
X552354Y682006D01*
X552520Y681954D01*
X552687Y681906D01*
X552855Y681862D01*
X553024Y681822D01*
X553194Y681786D01*
X553365Y681754D01*
X553537Y681727D01*
X553709Y681704D01*
X553882Y681685D01*
X554055Y681670D01*
X554229Y681659D01*
X554402Y681653D01*
X554576Y681651D01*
X563751Y681651D01*
X563751Y700000D01*
X563749Y700155D01*
X563743Y700310D01*
X563733Y700464D01*
X563720Y700619D01*
X563702Y700773D01*
X563680Y700926D01*
X563655Y701079D01*
X563626Y701231D01*
X563593Y701383D01*
X563556Y701533D01*
X563515Y701682D01*
X563471Y701831D01*
X563422Y701978D01*
X563370Y702124D01*
X563315Y702269D01*
X563255Y702412D01*
X563192Y702553D01*
X563126Y702693D01*
X563056Y702832D01*
X562983Y702968D01*
X562906Y703103D01*
X562825Y703235D01*
X562742Y703366D01*
X562655Y703494D01*
X562565Y703620D01*
X562471Y703744D01*
X562375Y703865D01*
X562276Y703984D01*
X562173Y704100D01*
X562068Y704214D01*
X561960Y704325D01*
X561849Y704433D01*
X561735Y704538D01*
X561619Y704641D01*
X561500Y704740D01*
X561379Y704836D01*
X561255Y704930D01*
X561129Y705020D01*
X561001Y705107D01*
X560870Y705190D01*
X560738Y705271D01*
X560603Y705348D01*
X560467Y705421D01*
X560328Y705491D01*
X560188Y705557D01*
X560047Y705620D01*
X559904Y705680D01*
X559759Y705735D01*
X559613Y705787D01*
X559466Y705836D01*
X559317Y705880D01*
X559168Y705921D01*
X559018Y705958D01*
X558866Y705991D01*
X558714Y706020D01*
X558561Y706045D01*
X558408Y706067D01*
X558254Y706085D01*
X558099Y706098D01*
X557945Y706108D01*
X557790Y706114D01*
X557635Y706116D01*
X549479Y706116D01*
X575418Y706116D02*
X575418Y687767D01*
X575419Y687767D02*
X575421Y687612D01*
X575427Y687457D01*
X575437Y687303D01*
X575450Y687148D01*
X575468Y686994D01*
X575490Y686841D01*
X575515Y686688D01*
X575544Y686536D01*
X575577Y686384D01*
X575614Y686234D01*
X575655Y686085D01*
X575699Y685936D01*
X575748Y685789D01*
X575800Y685643D01*
X575855Y685498D01*
X575915Y685355D01*
X575978Y685214D01*
X576044Y685074D01*
X576114Y684935D01*
X576187Y684799D01*
X576264Y684664D01*
X576345Y684532D01*
X576428Y684401D01*
X576515Y684273D01*
X576605Y684147D01*
X576699Y684023D01*
X576795Y683902D01*
X576894Y683783D01*
X576997Y683667D01*
X577102Y683553D01*
X577210Y683442D01*
X577321Y683334D01*
X577435Y683229D01*
X577551Y683126D01*
X577670Y683027D01*
X577791Y682931D01*
X577915Y682837D01*
X578041Y682747D01*
X578169Y682660D01*
X578300Y682577D01*
X578432Y682496D01*
X578567Y682419D01*
X578703Y682346D01*
X578842Y682276D01*
X578982Y682210D01*
X579123Y682147D01*
X579266Y682087D01*
X579411Y682032D01*
X579557Y681980D01*
X579704Y681931D01*
X579853Y681887D01*
X580002Y681846D01*
X580152Y681809D01*
X580304Y681776D01*
X580456Y681747D01*
X580609Y681722D01*
X580762Y681700D01*
X580916Y681682D01*
X581071Y681669D01*
X581225Y681659D01*
X581380Y681653D01*
X581535Y681651D01*
X591729Y681651D01*
X591729Y706116D01*
X618751Y718349D02*
X618751Y681651D01*
X608557Y681651D01*
X608402Y681653D01*
X608247Y681659D01*
X608093Y681669D01*
X607938Y681682D01*
X607784Y681700D01*
X607631Y681722D01*
X607478Y681747D01*
X607326Y681776D01*
X607174Y681809D01*
X607024Y681846D01*
X606875Y681887D01*
X606726Y681931D01*
X606579Y681980D01*
X606433Y682032D01*
X606288Y682087D01*
X606145Y682147D01*
X606004Y682210D01*
X605864Y682276D01*
X605725Y682346D01*
X605589Y682419D01*
X605454Y682496D01*
X605322Y682577D01*
X605191Y682660D01*
X605063Y682747D01*
X604937Y682837D01*
X604813Y682931D01*
X604692Y683027D01*
X604573Y683126D01*
X604457Y683229D01*
X604343Y683334D01*
X604232Y683442D01*
X604124Y683553D01*
X604019Y683667D01*
X603916Y683783D01*
X603817Y683902D01*
X603721Y684023D01*
X603627Y684147D01*
X603537Y684273D01*
X603450Y684401D01*
X603367Y684532D01*
X603286Y684664D01*
X603209Y684799D01*
X603136Y684935D01*
X603066Y685074D01*
X603000Y685214D01*
X602937Y685355D01*
X602877Y685498D01*
X602822Y685643D01*
X602770Y685789D01*
X602721Y685936D01*
X602677Y686085D01*
X602636Y686234D01*
X602599Y686384D01*
X602566Y686536D01*
X602537Y686688D01*
X602512Y686841D01*
X602490Y686994D01*
X602472Y687148D01*
X602459Y687303D01*
X602449Y687457D01*
X602443Y687612D01*
X602441Y687767D01*
X602441Y700000D01*
X602443Y700155D01*
X602449Y700310D01*
X602459Y700464D01*
X602472Y700619D01*
X602490Y700773D01*
X602512Y700926D01*
X602537Y701079D01*
X602566Y701231D01*
X602599Y701383D01*
X602636Y701533D01*
X602677Y701682D01*
X602721Y701831D01*
X602770Y701978D01*
X602822Y702124D01*
X602877Y702269D01*
X602937Y702412D01*
X603000Y702553D01*
X603066Y702693D01*
X603136Y702832D01*
X603209Y702968D01*
X603286Y703103D01*
X603367Y703235D01*
X603450Y703366D01*
X603537Y703494D01*
X603627Y703620D01*
X603721Y703744D01*
X603817Y703865D01*
X603916Y703984D01*
X604019Y704100D01*
X604124Y704214D01*
X604232Y704325D01*
X604343Y704433D01*
X604457Y704538D01*
X604573Y704641D01*
X604692Y704740D01*
X604813Y704836D01*
X604937Y704930D01*
X605063Y705020D01*
X605191Y705107D01*
X605322Y705190D01*
X605454Y705271D01*
X605589Y705348D01*
X605725Y705421D01*
X605864Y705491D01*
X606004Y705557D01*
X606145Y705620D01*
X606288Y705680D01*
X606433Y705735D01*
X606579Y705787D01*
X606726Y705836D01*
X606875Y705880D01*
X607024Y705921D01*
X607174Y705958D01*
X607326Y705991D01*
X607478Y706020D01*
X607631Y706045D01*
X607784Y706067D01*
X607938Y706085D01*
X608093Y706098D01*
X608247Y706108D01*
X608402Y706114D01*
X608557Y706116D01*
X618751Y706116D01*
X630574Y706116D02*
X630574Y681651D01*
X629554Y716310D02*
X629554Y718349D01*
X631593Y718349D01*
X631593Y716310D01*
X629554Y716310D01*
X641418Y697961D02*
X641418Y689806D01*
X641419Y697961D02*
X641421Y698160D01*
X641429Y698358D01*
X641441Y698556D01*
X641458Y698754D01*
X641479Y698952D01*
X641506Y699148D01*
X641537Y699344D01*
X641573Y699540D01*
X641614Y699734D01*
X641660Y699927D01*
X641710Y700120D01*
X641765Y700310D01*
X641824Y700500D01*
X641888Y700688D01*
X641957Y700874D01*
X642030Y701059D01*
X642108Y701242D01*
X642190Y701422D01*
X642277Y701601D01*
X642367Y701778D01*
X642462Y701952D01*
X642562Y702124D01*
X642665Y702294D01*
X642773Y702461D01*
X642884Y702625D01*
X643000Y702786D01*
X643119Y702945D01*
X643243Y703101D01*
X643370Y703253D01*
X643500Y703403D01*
X643635Y703549D01*
X643773Y703692D01*
X643914Y703832D01*
X644058Y703968D01*
X644206Y704100D01*
X644357Y704229D01*
X644512Y704354D01*
X644669Y704476D01*
X644829Y704593D01*
X644992Y704707D01*
X645157Y704817D01*
X645326Y704922D01*
X645497Y705023D01*
X645670Y705121D01*
X645845Y705214D01*
X646023Y705302D01*
X646203Y705387D01*
X646385Y705466D01*
X646568Y705542D01*
X646754Y705613D01*
X646941Y705679D01*
X647130Y705741D01*
X647320Y705798D01*
X647511Y705851D01*
X647704Y705899D01*
X647898Y705942D01*
X648093Y705980D01*
X648288Y706014D01*
X648485Y706043D01*
X648682Y706067D01*
X648880Y706086D01*
X649078Y706101D01*
X649276Y706111D01*
X649475Y706115D01*
X649673Y706115D01*
X649872Y706111D01*
X650070Y706101D01*
X650268Y706086D01*
X650466Y706067D01*
X650663Y706043D01*
X650860Y706014D01*
X651055Y705980D01*
X651250Y705942D01*
X651444Y705899D01*
X651637Y705851D01*
X651828Y705798D01*
X652018Y705741D01*
X652207Y705679D01*
X652394Y705613D01*
X652580Y705542D01*
X652763Y705466D01*
X652945Y705387D01*
X653125Y705302D01*
X653303Y705214D01*
X653478Y705121D01*
X653652Y705023D01*
X653822Y704922D01*
X653991Y704817D01*
X654156Y704707D01*
X654319Y704593D01*
X654479Y704476D01*
X654636Y704354D01*
X654791Y704229D01*
X654942Y704100D01*
X655090Y703968D01*
X655234Y703832D01*
X655375Y703692D01*
X655513Y703549D01*
X655648Y703403D01*
X655778Y703253D01*
X655905Y703101D01*
X656029Y702945D01*
X656148Y702786D01*
X656264Y702625D01*
X656375Y702461D01*
X656483Y702294D01*
X656586Y702124D01*
X656686Y701952D01*
X656781Y701778D01*
X656871Y701601D01*
X656958Y701422D01*
X657040Y701242D01*
X657118Y701059D01*
X657191Y700874D01*
X657260Y700688D01*
X657324Y700500D01*
X657383Y700310D01*
X657438Y700120D01*
X657488Y699927D01*
X657534Y699734D01*
X657575Y699540D01*
X657611Y699344D01*
X657642Y699148D01*
X657669Y698952D01*
X657690Y698754D01*
X657707Y698556D01*
X657719Y698358D01*
X657727Y698160D01*
X657729Y697961D01*
X657729Y689806D01*
X657727Y689607D01*
X657719Y689409D01*
X657707Y689211D01*
X657690Y689013D01*
X657669Y688815D01*
X657642Y688619D01*
X657611Y688423D01*
X657575Y688227D01*
X657534Y688033D01*
X657488Y687840D01*
X657438Y687647D01*
X657383Y687457D01*
X657324Y687267D01*
X657260Y687079D01*
X657191Y686893D01*
X657118Y686708D01*
X657040Y686525D01*
X656958Y686345D01*
X656871Y686166D01*
X656781Y685989D01*
X656686Y685815D01*
X656586Y685643D01*
X656483Y685473D01*
X656375Y685306D01*
X656264Y685142D01*
X656148Y684981D01*
X656029Y684822D01*
X655905Y684666D01*
X655778Y684514D01*
X655648Y684364D01*
X655513Y684218D01*
X655375Y684075D01*
X655234Y683935D01*
X655090Y683799D01*
X654942Y683667D01*
X654791Y683538D01*
X654636Y683413D01*
X654479Y683291D01*
X654319Y683174D01*
X654156Y683060D01*
X653991Y682950D01*
X653822Y682845D01*
X653652Y682744D01*
X653478Y682646D01*
X653303Y682553D01*
X653125Y682465D01*
X652945Y682380D01*
X652763Y682301D01*
X652580Y682225D01*
X652394Y682154D01*
X652207Y682088D01*
X652018Y682026D01*
X651828Y681969D01*
X651637Y681916D01*
X651444Y681868D01*
X651250Y681825D01*
X651055Y681787D01*
X650860Y681753D01*
X650663Y681724D01*
X650466Y681700D01*
X650268Y681681D01*
X650070Y681666D01*
X649872Y681656D01*
X649673Y681652D01*
X649475Y681652D01*
X649276Y681656D01*
X649078Y681666D01*
X648880Y681681D01*
X648682Y681700D01*
X648485Y681724D01*
X648288Y681753D01*
X648093Y681787D01*
X647898Y681825D01*
X647704Y681868D01*
X647511Y681916D01*
X647320Y681969D01*
X647130Y682026D01*
X646941Y682088D01*
X646754Y682154D01*
X646568Y682225D01*
X646385Y682301D01*
X646203Y682380D01*
X646023Y682465D01*
X645845Y682553D01*
X645670Y682646D01*
X645497Y682744D01*
X645326Y682845D01*
X645157Y682950D01*
X644992Y683060D01*
X644829Y683174D01*
X644669Y683291D01*
X644512Y683413D01*
X644357Y683538D01*
X644206Y683667D01*
X644058Y683799D01*
X643914Y683935D01*
X643773Y684075D01*
X643635Y684218D01*
X643500Y684364D01*
X643370Y684514D01*
X643243Y684666D01*
X643119Y684822D01*
X643000Y684981D01*
X642884Y685142D01*
X642773Y685306D01*
X642665Y685473D01*
X642562Y685643D01*
X642462Y685815D01*
X642367Y685989D01*
X642277Y686166D01*
X642190Y686345D01*
X642108Y686525D01*
X642030Y686708D01*
X641957Y686893D01*
X641888Y687079D01*
X641824Y687267D01*
X641765Y687457D01*
X641710Y687647D01*
X641660Y687840D01*
X641614Y688033D01*
X641573Y688227D01*
X641537Y688423D01*
X641506Y688619D01*
X641479Y688815D01*
X641458Y689013D01*
X641441Y689211D01*
X641429Y689409D01*
X641421Y689607D01*
X641419Y689806D01*
X684341Y681651D02*
X684341Y706116D01*
X702690Y706116D01*
X702845Y706114D01*
X703000Y706108D01*
X703154Y706098D01*
X703309Y706085D01*
X703463Y706067D01*
X703616Y706045D01*
X703769Y706020D01*
X703921Y705991D01*
X704073Y705958D01*
X704223Y705921D01*
X704372Y705880D01*
X704521Y705836D01*
X704668Y705787D01*
X704814Y705735D01*
X704959Y705680D01*
X705102Y705620D01*
X705243Y705557D01*
X705383Y705491D01*
X705522Y705421D01*
X705658Y705348D01*
X705793Y705271D01*
X705925Y705190D01*
X706056Y705107D01*
X706184Y705020D01*
X706310Y704930D01*
X706434Y704836D01*
X706555Y704740D01*
X706674Y704641D01*
X706790Y704538D01*
X706904Y704433D01*
X707015Y704325D01*
X707123Y704214D01*
X707228Y704100D01*
X707331Y703984D01*
X707430Y703865D01*
X707526Y703744D01*
X707620Y703620D01*
X707710Y703494D01*
X707797Y703366D01*
X707880Y703235D01*
X707961Y703103D01*
X708038Y702968D01*
X708111Y702832D01*
X708181Y702693D01*
X708247Y702553D01*
X708310Y702412D01*
X708370Y702269D01*
X708425Y702124D01*
X708477Y701978D01*
X708526Y701831D01*
X708570Y701682D01*
X708611Y701533D01*
X708648Y701383D01*
X708681Y701231D01*
X708710Y701079D01*
X708735Y700926D01*
X708757Y700773D01*
X708775Y700619D01*
X708788Y700464D01*
X708798Y700310D01*
X708804Y700155D01*
X708806Y700000D01*
X708806Y681651D01*
X696574Y681651D02*
X696574Y706116D01*
X720574Y706116D02*
X720574Y681651D01*
X719554Y716310D02*
X719554Y718349D01*
X721593Y718349D01*
X721593Y716310D01*
X719554Y716310D01*
X746729Y706116D02*
X730418Y681651D01*
X746729Y681651D02*
X730418Y706116D01*
X761535Y681651D02*
X771729Y681651D01*
X761535Y681651D02*
X761380Y681653D01*
X761225Y681659D01*
X761071Y681669D01*
X760916Y681682D01*
X760762Y681700D01*
X760609Y681722D01*
X760456Y681747D01*
X760304Y681776D01*
X760152Y681809D01*
X760002Y681846D01*
X759853Y681887D01*
X759704Y681931D01*
X759557Y681980D01*
X759411Y682032D01*
X759266Y682087D01*
X759123Y682147D01*
X758982Y682210D01*
X758842Y682276D01*
X758703Y682346D01*
X758567Y682419D01*
X758432Y682496D01*
X758300Y682577D01*
X758169Y682660D01*
X758041Y682747D01*
X757915Y682837D01*
X757791Y682931D01*
X757670Y683027D01*
X757551Y683126D01*
X757435Y683229D01*
X757321Y683334D01*
X757210Y683442D01*
X757102Y683553D01*
X756997Y683667D01*
X756894Y683783D01*
X756795Y683902D01*
X756699Y684023D01*
X756605Y684147D01*
X756515Y684273D01*
X756428Y684401D01*
X756345Y684532D01*
X756264Y684664D01*
X756187Y684799D01*
X756114Y684935D01*
X756044Y685074D01*
X755978Y685214D01*
X755915Y685355D01*
X755855Y685498D01*
X755800Y685643D01*
X755748Y685789D01*
X755699Y685936D01*
X755655Y686085D01*
X755614Y686234D01*
X755577Y686384D01*
X755544Y686536D01*
X755515Y686688D01*
X755490Y686841D01*
X755468Y686994D01*
X755450Y687148D01*
X755437Y687303D01*
X755427Y687457D01*
X755421Y687612D01*
X755419Y687767D01*
X755418Y687767D02*
X755418Y697961D01*
X755420Y698160D01*
X755428Y698358D01*
X755440Y698556D01*
X755457Y698754D01*
X755478Y698952D01*
X755505Y699148D01*
X755536Y699344D01*
X755572Y699540D01*
X755613Y699734D01*
X755659Y699927D01*
X755709Y700120D01*
X755764Y700310D01*
X755823Y700500D01*
X755887Y700688D01*
X755956Y700874D01*
X756029Y701059D01*
X756107Y701242D01*
X756189Y701422D01*
X756276Y701601D01*
X756366Y701778D01*
X756461Y701952D01*
X756561Y702124D01*
X756664Y702294D01*
X756772Y702461D01*
X756883Y702625D01*
X756999Y702786D01*
X757118Y702945D01*
X757242Y703101D01*
X757369Y703253D01*
X757499Y703403D01*
X757634Y703549D01*
X757772Y703692D01*
X757913Y703832D01*
X758057Y703968D01*
X758205Y704100D01*
X758356Y704229D01*
X758511Y704354D01*
X758668Y704476D01*
X758828Y704593D01*
X758991Y704707D01*
X759156Y704817D01*
X759325Y704922D01*
X759496Y705023D01*
X759669Y705121D01*
X759844Y705214D01*
X760022Y705302D01*
X760202Y705387D01*
X760384Y705466D01*
X760567Y705542D01*
X760753Y705613D01*
X760940Y705679D01*
X761129Y705741D01*
X761319Y705798D01*
X761510Y705851D01*
X761703Y705899D01*
X761897Y705942D01*
X762092Y705980D01*
X762287Y706014D01*
X762484Y706043D01*
X762681Y706067D01*
X762879Y706086D01*
X763077Y706101D01*
X763275Y706111D01*
X763474Y706115D01*
X763672Y706115D01*
X763871Y706111D01*
X764069Y706101D01*
X764267Y706086D01*
X764465Y706067D01*
X764662Y706043D01*
X764859Y706014D01*
X765054Y705980D01*
X765249Y705942D01*
X765443Y705899D01*
X765636Y705851D01*
X765827Y705798D01*
X766017Y705741D01*
X766206Y705679D01*
X766393Y705613D01*
X766579Y705542D01*
X766762Y705466D01*
X766944Y705387D01*
X767124Y705302D01*
X767302Y705214D01*
X767477Y705121D01*
X767651Y705023D01*
X767821Y704922D01*
X767990Y704817D01*
X768155Y704707D01*
X768318Y704593D01*
X768478Y704476D01*
X768635Y704354D01*
X768790Y704229D01*
X768941Y704100D01*
X769089Y703968D01*
X769233Y703832D01*
X769374Y703692D01*
X769512Y703549D01*
X769647Y703403D01*
X769777Y703253D01*
X769904Y703101D01*
X770028Y702945D01*
X770147Y702786D01*
X770263Y702625D01*
X770374Y702461D01*
X770482Y702294D01*
X770585Y702124D01*
X770685Y701952D01*
X770780Y701778D01*
X770870Y701601D01*
X770957Y701422D01*
X771039Y701242D01*
X771117Y701059D01*
X771190Y700874D01*
X771259Y700688D01*
X771323Y700500D01*
X771382Y700310D01*
X771437Y700120D01*
X771487Y699927D01*
X771533Y699734D01*
X771574Y699540D01*
X771610Y699344D01*
X771641Y699148D01*
X771668Y698952D01*
X771689Y698754D01*
X771706Y698556D01*
X771718Y698358D01*
X771726Y698160D01*
X771728Y697961D01*
X771729Y697961D02*
X771729Y693884D01*
X755418Y693884D01*
X782387Y681651D02*
X782387Y706116D01*
X794620Y706116D01*
X794620Y702039D01*
D11*
X475400Y297620D02*
X424600Y297620D01*
X475400Y297620D02*
X475400Y290000D01*
X475400Y282380D01*
X424600Y282380D01*
X424600Y290000D01*
X424600Y297620D01*
X475400Y290000D02*
X477940Y290000D01*
X424600Y290000D02*
X422060Y290000D01*
D12*
X445948Y300795D02*
X445948Y305621D01*
X447289Y305621D01*
X447360Y305619D01*
X447432Y305613D01*
X447502Y305604D01*
X447572Y305591D01*
X447642Y305574D01*
X447710Y305553D01*
X447777Y305529D01*
X447843Y305501D01*
X447907Y305470D01*
X447970Y305435D01*
X448030Y305397D01*
X448089Y305356D01*
X448145Y305312D01*
X448199Y305265D01*
X448250Y305216D01*
X448298Y305163D01*
X448344Y305108D01*
X448386Y305051D01*
X448426Y304991D01*
X448462Y304930D01*
X448495Y304866D01*
X448524Y304801D01*
X448550Y304735D01*
X448573Y304667D01*
X448592Y304598D01*
X448607Y304528D01*
X448618Y304458D01*
X448626Y304387D01*
X448630Y304316D01*
X448630Y304244D01*
X448626Y304173D01*
X448618Y304102D01*
X448607Y304032D01*
X448592Y303962D01*
X448573Y303893D01*
X448550Y303825D01*
X448524Y303759D01*
X448495Y303694D01*
X448462Y303630D01*
X448426Y303569D01*
X448386Y303509D01*
X448344Y303452D01*
X448298Y303397D01*
X448250Y303344D01*
X448199Y303295D01*
X448145Y303248D01*
X448089Y303204D01*
X448030Y303163D01*
X447970Y303125D01*
X447907Y303090D01*
X447843Y303059D01*
X447777Y303031D01*
X447710Y303007D01*
X447642Y302986D01*
X447572Y302969D01*
X447502Y302956D01*
X447432Y302947D01*
X447360Y302941D01*
X447289Y302939D01*
X447289Y302940D02*
X445948Y302940D01*
X447557Y302940D02*
X448629Y300795D01*
X451371Y304549D02*
X452711Y305621D01*
X452711Y300795D01*
X451371Y300795D02*
X454052Y300795D01*
X447092Y279205D02*
X445752Y278133D01*
X447092Y279205D02*
X447092Y274379D01*
X445752Y274379D02*
X448433Y274379D01*
X451567Y274379D02*
X451567Y279205D01*
X454248Y279205D02*
X451567Y276256D01*
X452640Y277328D02*
X454248Y274379D01*
D11*
X475400Y187620D02*
X424600Y187620D01*
X475400Y187620D02*
X475400Y180000D01*
X475400Y172380D01*
X424600Y172380D01*
X424600Y180000D01*
X424600Y187620D01*
X475400Y180000D02*
X477940Y180000D01*
X424600Y180000D02*
X422060Y180000D01*
D12*
X445948Y190795D02*
X445948Y195621D01*
X447289Y195621D01*
X447360Y195619D01*
X447432Y195613D01*
X447502Y195604D01*
X447572Y195591D01*
X447642Y195574D01*
X447710Y195553D01*
X447777Y195529D01*
X447843Y195501D01*
X447907Y195470D01*
X447970Y195435D01*
X448030Y195397D01*
X448089Y195356D01*
X448145Y195312D01*
X448199Y195265D01*
X448250Y195216D01*
X448298Y195163D01*
X448344Y195108D01*
X448386Y195051D01*
X448426Y194991D01*
X448462Y194930D01*
X448495Y194866D01*
X448524Y194801D01*
X448550Y194735D01*
X448573Y194667D01*
X448592Y194598D01*
X448607Y194528D01*
X448618Y194458D01*
X448626Y194387D01*
X448630Y194316D01*
X448630Y194244D01*
X448626Y194173D01*
X448618Y194102D01*
X448607Y194032D01*
X448592Y193962D01*
X448573Y193893D01*
X448550Y193825D01*
X448524Y193759D01*
X448495Y193694D01*
X448462Y193630D01*
X448426Y193569D01*
X448386Y193509D01*
X448344Y193452D01*
X448298Y193397D01*
X448250Y193344D01*
X448199Y193295D01*
X448145Y193248D01*
X448089Y193204D01*
X448030Y193163D01*
X447970Y193125D01*
X447907Y193090D01*
X447843Y193059D01*
X447777Y193031D01*
X447710Y193007D01*
X447642Y192986D01*
X447572Y192969D01*
X447502Y192956D01*
X447432Y192947D01*
X447360Y192941D01*
X447289Y192939D01*
X447289Y192940D02*
X445948Y192940D01*
X447557Y192940D02*
X448629Y190795D01*
X452845Y195621D02*
X452913Y195619D01*
X452980Y195613D01*
X453047Y195604D01*
X453114Y195591D01*
X453179Y195574D01*
X453244Y195553D01*
X453307Y195529D01*
X453369Y195501D01*
X453429Y195470D01*
X453487Y195436D01*
X453543Y195398D01*
X453598Y195358D01*
X453649Y195314D01*
X453698Y195267D01*
X453745Y195218D01*
X453789Y195167D01*
X453829Y195112D01*
X453867Y195056D01*
X453901Y194998D01*
X453932Y194938D01*
X453960Y194876D01*
X453984Y194813D01*
X454005Y194748D01*
X454022Y194683D01*
X454035Y194616D01*
X454044Y194549D01*
X454050Y194482D01*
X454052Y194414D01*
X452845Y195621D02*
X452767Y195619D01*
X452689Y195613D01*
X452612Y195603D01*
X452535Y195590D01*
X452459Y195572D01*
X452384Y195551D01*
X452310Y195526D01*
X452238Y195497D01*
X452167Y195465D01*
X452098Y195429D01*
X452030Y195390D01*
X451965Y195347D01*
X451902Y195301D01*
X451841Y195252D01*
X451783Y195200D01*
X451728Y195145D01*
X451675Y195088D01*
X451626Y195028D01*
X451579Y194965D01*
X451536Y194901D01*
X451496Y194834D01*
X451459Y194765D01*
X451426Y194694D01*
X451396Y194622D01*
X451370Y194549D01*
X453650Y193476D02*
X453699Y193525D01*
X453746Y193577D01*
X453789Y193632D01*
X453830Y193689D01*
X453868Y193748D01*
X453902Y193809D01*
X453933Y193872D01*
X453961Y193936D01*
X453985Y194002D01*
X454005Y194068D01*
X454022Y194136D01*
X454035Y194205D01*
X454044Y194274D01*
X454050Y194344D01*
X454052Y194414D01*
X453650Y193476D02*
X451371Y190795D01*
X454052Y190795D01*
X447424Y169205D02*
X446083Y168133D01*
X447424Y169205D02*
X447424Y164379D01*
X448764Y164379D02*
X446083Y164379D01*
X451772Y164379D02*
X451772Y169205D01*
X453917Y167596D02*
X451772Y165988D01*
X452710Y166658D02*
X453917Y164379D01*
D11*
X475400Y147620D02*
X424600Y147620D01*
X475400Y147620D02*
X475400Y140000D01*
X475400Y132380D01*
X424600Y132380D01*
X424600Y140000D01*
X424600Y147620D01*
X475400Y140000D02*
X477940Y140000D01*
X424600Y140000D02*
X422060Y140000D01*
D12*
X445948Y150795D02*
X445948Y155621D01*
X447289Y155621D01*
X447360Y155619D01*
X447432Y155613D01*
X447502Y155604D01*
X447572Y155591D01*
X447642Y155574D01*
X447710Y155553D01*
X447777Y155529D01*
X447843Y155501D01*
X447907Y155470D01*
X447970Y155435D01*
X448030Y155397D01*
X448089Y155356D01*
X448145Y155312D01*
X448199Y155265D01*
X448250Y155216D01*
X448298Y155163D01*
X448344Y155108D01*
X448386Y155051D01*
X448426Y154991D01*
X448462Y154930D01*
X448495Y154866D01*
X448524Y154801D01*
X448550Y154735D01*
X448573Y154667D01*
X448592Y154598D01*
X448607Y154528D01*
X448618Y154458D01*
X448626Y154387D01*
X448630Y154316D01*
X448630Y154244D01*
X448626Y154173D01*
X448618Y154102D01*
X448607Y154032D01*
X448592Y153962D01*
X448573Y153893D01*
X448550Y153825D01*
X448524Y153759D01*
X448495Y153694D01*
X448462Y153630D01*
X448426Y153569D01*
X448386Y153509D01*
X448344Y153452D01*
X448298Y153397D01*
X448250Y153344D01*
X448199Y153295D01*
X448145Y153248D01*
X448089Y153204D01*
X448030Y153163D01*
X447970Y153125D01*
X447907Y153090D01*
X447843Y153059D01*
X447777Y153031D01*
X447710Y153007D01*
X447642Y152986D01*
X447572Y152969D01*
X447502Y152956D01*
X447432Y152947D01*
X447360Y152941D01*
X447289Y152939D01*
X447289Y152940D02*
X445948Y152940D01*
X447557Y152940D02*
X448629Y150795D01*
X451371Y150795D02*
X452711Y150795D01*
X452782Y150797D01*
X452854Y150803D01*
X452924Y150812D01*
X452994Y150825D01*
X453064Y150842D01*
X453132Y150863D01*
X453199Y150887D01*
X453265Y150915D01*
X453329Y150946D01*
X453392Y150981D01*
X453452Y151019D01*
X453511Y151060D01*
X453567Y151104D01*
X453621Y151151D01*
X453672Y151200D01*
X453720Y151253D01*
X453766Y151308D01*
X453808Y151365D01*
X453848Y151425D01*
X453884Y151486D01*
X453917Y151550D01*
X453946Y151615D01*
X453972Y151681D01*
X453995Y151749D01*
X454014Y151818D01*
X454029Y151888D01*
X454040Y151958D01*
X454048Y152029D01*
X454052Y152100D01*
X454052Y152172D01*
X454048Y152243D01*
X454040Y152314D01*
X454029Y152384D01*
X454014Y152454D01*
X453995Y152523D01*
X453972Y152591D01*
X453946Y152657D01*
X453917Y152722D01*
X453884Y152786D01*
X453848Y152847D01*
X453808Y152907D01*
X453766Y152964D01*
X453720Y153019D01*
X453672Y153072D01*
X453621Y153121D01*
X453567Y153168D01*
X453511Y153212D01*
X453452Y153253D01*
X453392Y153291D01*
X453329Y153326D01*
X453265Y153357D01*
X453199Y153385D01*
X453132Y153409D01*
X453064Y153430D01*
X452994Y153447D01*
X452924Y153460D01*
X452854Y153469D01*
X452782Y153475D01*
X452711Y153477D01*
X452979Y155621D02*
X451371Y155621D01*
X452979Y155621D02*
X453044Y155619D01*
X453108Y155613D01*
X453172Y155603D01*
X453236Y155590D01*
X453298Y155572D01*
X453359Y155551D01*
X453419Y155527D01*
X453477Y155498D01*
X453534Y155466D01*
X453588Y155431D01*
X453640Y155393D01*
X453690Y155351D01*
X453737Y155307D01*
X453781Y155260D01*
X453823Y155210D01*
X453861Y155158D01*
X453896Y155104D01*
X453928Y155047D01*
X453957Y154989D01*
X453981Y154929D01*
X454002Y154868D01*
X454020Y154806D01*
X454033Y154742D01*
X454043Y154678D01*
X454049Y154614D01*
X454051Y154549D01*
X454049Y154484D01*
X454043Y154420D01*
X454033Y154356D01*
X454020Y154292D01*
X454002Y154230D01*
X453981Y154169D01*
X453957Y154109D01*
X453928Y154051D01*
X453896Y153994D01*
X453861Y153940D01*
X453823Y153888D01*
X453781Y153838D01*
X453737Y153791D01*
X453690Y153747D01*
X453640Y153705D01*
X453588Y153667D01*
X453534Y153632D01*
X453477Y153600D01*
X453419Y153571D01*
X453359Y153547D01*
X453298Y153526D01*
X453236Y153508D01*
X453172Y153495D01*
X453108Y153485D01*
X453044Y153479D01*
X452979Y153477D01*
X452979Y153476D02*
X451907Y153476D01*
X447424Y129205D02*
X446083Y128133D01*
X447424Y129205D02*
X447424Y124379D01*
X448764Y124379D02*
X446083Y124379D01*
X451772Y124379D02*
X451772Y129205D01*
X453917Y127596D02*
X451772Y125988D01*
X452710Y126658D02*
X453917Y124379D01*
D11*
X475400Y257620D02*
X424600Y257620D01*
X475400Y257620D02*
X475400Y250000D01*
X475400Y242380D01*
X424600Y242380D01*
X424600Y250000D01*
X424600Y257620D01*
X475400Y250000D02*
X477940Y250000D01*
X424600Y250000D02*
X422060Y250000D01*
D12*
X445948Y260795D02*
X445948Y265621D01*
X447289Y265621D01*
X447360Y265619D01*
X447432Y265613D01*
X447502Y265604D01*
X447572Y265591D01*
X447642Y265574D01*
X447710Y265553D01*
X447777Y265529D01*
X447843Y265501D01*
X447907Y265470D01*
X447970Y265435D01*
X448030Y265397D01*
X448089Y265356D01*
X448145Y265312D01*
X448199Y265265D01*
X448250Y265216D01*
X448298Y265163D01*
X448344Y265108D01*
X448386Y265051D01*
X448426Y264991D01*
X448462Y264930D01*
X448495Y264866D01*
X448524Y264801D01*
X448550Y264735D01*
X448573Y264667D01*
X448592Y264598D01*
X448607Y264528D01*
X448618Y264458D01*
X448626Y264387D01*
X448630Y264316D01*
X448630Y264244D01*
X448626Y264173D01*
X448618Y264102D01*
X448607Y264032D01*
X448592Y263962D01*
X448573Y263893D01*
X448550Y263825D01*
X448524Y263759D01*
X448495Y263694D01*
X448462Y263630D01*
X448426Y263569D01*
X448386Y263509D01*
X448344Y263452D01*
X448298Y263397D01*
X448250Y263344D01*
X448199Y263295D01*
X448145Y263248D01*
X448089Y263204D01*
X448030Y263163D01*
X447970Y263125D01*
X447907Y263090D01*
X447843Y263059D01*
X447777Y263031D01*
X447710Y263007D01*
X447642Y262986D01*
X447572Y262969D01*
X447502Y262956D01*
X447432Y262947D01*
X447360Y262941D01*
X447289Y262939D01*
X447289Y262940D02*
X445948Y262940D01*
X447557Y262940D02*
X448629Y260795D01*
X451371Y261867D02*
X452443Y265621D01*
X451371Y261867D02*
X454052Y261867D01*
X453248Y262940D02*
X453248Y260795D01*
X447424Y239205D02*
X446083Y238133D01*
X447424Y239205D02*
X447424Y234379D01*
X448764Y234379D02*
X446083Y234379D01*
X451772Y234379D02*
X451772Y239205D01*
X453917Y237596D02*
X451772Y235988D01*
X452710Y236658D02*
X453917Y234379D01*
D11*
X770000Y510000D02*
X770000Y630000D01*
X890000Y540000D02*
X890000Y525000D01*
X890000Y600000D02*
X890000Y615000D01*
X880000Y615000D01*
X880000Y525000D02*
X890000Y525000D01*
X880000Y510000D02*
X810000Y510000D01*
X780000Y510000D02*
X770000Y510000D01*
X880000Y510000D02*
X880000Y630000D01*
X810000Y630000D01*
X780000Y630000D02*
X770000Y630000D01*
D12*
X851436Y549045D02*
X851436Y545291D01*
X851434Y545226D01*
X851428Y545162D01*
X851418Y545098D01*
X851405Y545034D01*
X851387Y544972D01*
X851366Y544911D01*
X851342Y544851D01*
X851313Y544793D01*
X851281Y544736D01*
X851246Y544682D01*
X851208Y544630D01*
X851166Y544580D01*
X851122Y544533D01*
X851075Y544489D01*
X851025Y544447D01*
X850973Y544409D01*
X850919Y544374D01*
X850862Y544342D01*
X850804Y544313D01*
X850744Y544289D01*
X850683Y544268D01*
X850621Y544250D01*
X850557Y544237D01*
X850493Y544227D01*
X850429Y544221D01*
X850364Y544219D01*
X849827Y544219D01*
X854384Y547973D02*
X855724Y549045D01*
X855724Y544219D01*
X854384Y544219D02*
X857065Y544219D01*
D11*
X770000Y500000D02*
X770000Y380000D01*
X890000Y395000D02*
X890000Y410000D01*
X890000Y470000D02*
X890000Y485000D01*
X880000Y485000D01*
X880000Y395000D02*
X890000Y395000D01*
X880000Y380000D02*
X810000Y380000D01*
X780000Y380000D02*
X770000Y380000D01*
X880000Y380000D02*
X880000Y500000D01*
X810000Y500000D01*
X780000Y500000D02*
X770000Y500000D01*
D12*
X851436Y419045D02*
X851436Y415291D01*
X851434Y415226D01*
X851428Y415162D01*
X851418Y415098D01*
X851405Y415034D01*
X851387Y414972D01*
X851366Y414911D01*
X851342Y414851D01*
X851313Y414793D01*
X851281Y414736D01*
X851246Y414682D01*
X851208Y414630D01*
X851166Y414580D01*
X851122Y414533D01*
X851075Y414489D01*
X851025Y414447D01*
X850973Y414409D01*
X850919Y414374D01*
X850862Y414342D01*
X850804Y414313D01*
X850744Y414289D01*
X850683Y414268D01*
X850621Y414250D01*
X850557Y414237D01*
X850493Y414227D01*
X850429Y414221D01*
X850364Y414219D01*
X849827Y414219D01*
X855859Y419045D02*
X855927Y419043D01*
X855994Y419037D01*
X856061Y419028D01*
X856128Y419015D01*
X856193Y418998D01*
X856258Y418977D01*
X856321Y418953D01*
X856383Y418925D01*
X856443Y418894D01*
X856501Y418860D01*
X856557Y418822D01*
X856612Y418782D01*
X856663Y418738D01*
X856712Y418691D01*
X856759Y418642D01*
X856803Y418591D01*
X856843Y418536D01*
X856881Y418480D01*
X856915Y418422D01*
X856946Y418362D01*
X856974Y418300D01*
X856998Y418237D01*
X857019Y418172D01*
X857036Y418107D01*
X857049Y418040D01*
X857058Y417973D01*
X857064Y417906D01*
X857066Y417838D01*
X855859Y419045D02*
X855781Y419043D01*
X855703Y419037D01*
X855626Y419027D01*
X855549Y419014D01*
X855473Y418996D01*
X855398Y418975D01*
X855324Y418950D01*
X855252Y418921D01*
X855181Y418889D01*
X855112Y418853D01*
X855044Y418814D01*
X854979Y418771D01*
X854916Y418725D01*
X854855Y418676D01*
X854797Y418624D01*
X854742Y418569D01*
X854689Y418512D01*
X854640Y418452D01*
X854593Y418389D01*
X854550Y418325D01*
X854510Y418258D01*
X854473Y418189D01*
X854440Y418118D01*
X854410Y418046D01*
X854384Y417973D01*
X856663Y416900D02*
X856712Y416949D01*
X856759Y417001D01*
X856802Y417056D01*
X856843Y417113D01*
X856881Y417172D01*
X856915Y417233D01*
X856946Y417296D01*
X856974Y417360D01*
X856998Y417426D01*
X857018Y417492D01*
X857035Y417560D01*
X857048Y417629D01*
X857057Y417698D01*
X857063Y417768D01*
X857065Y417838D01*
X856663Y416900D02*
X854384Y414219D01*
X857065Y414219D01*
D11*
X770000Y230000D02*
X770000Y110000D01*
X890000Y125000D02*
X890000Y140000D01*
X890000Y200000D02*
X890000Y215000D01*
X880000Y215000D01*
X880000Y125000D02*
X890000Y125000D01*
X880000Y110000D02*
X810000Y110000D01*
X780000Y110000D02*
X770000Y110000D01*
X880000Y110000D02*
X880000Y230000D01*
X810000Y230000D01*
X780000Y230000D02*
X770000Y230000D01*
D12*
X851436Y149045D02*
X851436Y145291D01*
X851434Y145226D01*
X851428Y145162D01*
X851418Y145098D01*
X851405Y145034D01*
X851387Y144972D01*
X851366Y144911D01*
X851342Y144851D01*
X851313Y144793D01*
X851281Y144736D01*
X851246Y144682D01*
X851208Y144630D01*
X851166Y144580D01*
X851122Y144533D01*
X851075Y144489D01*
X851025Y144447D01*
X850973Y144409D01*
X850919Y144374D01*
X850862Y144342D01*
X850804Y144313D01*
X850744Y144289D01*
X850683Y144268D01*
X850621Y144250D01*
X850557Y144237D01*
X850493Y144227D01*
X850429Y144221D01*
X850364Y144219D01*
X849827Y144219D01*
X854384Y144219D02*
X855724Y144219D01*
X855795Y144221D01*
X855867Y144227D01*
X855937Y144236D01*
X856007Y144249D01*
X856077Y144266D01*
X856145Y144287D01*
X856212Y144311D01*
X856278Y144339D01*
X856342Y144370D01*
X856405Y144405D01*
X856465Y144443D01*
X856524Y144484D01*
X856580Y144528D01*
X856634Y144575D01*
X856685Y144624D01*
X856733Y144677D01*
X856779Y144732D01*
X856821Y144789D01*
X856861Y144849D01*
X856897Y144910D01*
X856930Y144974D01*
X856959Y145039D01*
X856985Y145105D01*
X857008Y145173D01*
X857027Y145242D01*
X857042Y145312D01*
X857053Y145382D01*
X857061Y145453D01*
X857065Y145524D01*
X857065Y145596D01*
X857061Y145667D01*
X857053Y145738D01*
X857042Y145808D01*
X857027Y145878D01*
X857008Y145947D01*
X856985Y146015D01*
X856959Y146081D01*
X856930Y146146D01*
X856897Y146210D01*
X856861Y146271D01*
X856821Y146331D01*
X856779Y146388D01*
X856733Y146443D01*
X856685Y146496D01*
X856634Y146545D01*
X856580Y146592D01*
X856524Y146636D01*
X856465Y146677D01*
X856405Y146715D01*
X856342Y146750D01*
X856278Y146781D01*
X856212Y146809D01*
X856145Y146833D01*
X856077Y146854D01*
X856007Y146871D01*
X855937Y146884D01*
X855867Y146893D01*
X855795Y146899D01*
X855724Y146901D01*
X855993Y149045D02*
X854384Y149045D01*
X855993Y149045D02*
X856058Y149043D01*
X856122Y149037D01*
X856186Y149027D01*
X856250Y149014D01*
X856312Y148996D01*
X856373Y148975D01*
X856433Y148951D01*
X856491Y148922D01*
X856548Y148890D01*
X856602Y148855D01*
X856654Y148817D01*
X856704Y148775D01*
X856751Y148731D01*
X856795Y148684D01*
X856837Y148634D01*
X856875Y148582D01*
X856910Y148528D01*
X856942Y148471D01*
X856971Y148413D01*
X856995Y148353D01*
X857016Y148292D01*
X857034Y148230D01*
X857047Y148166D01*
X857057Y148102D01*
X857063Y148038D01*
X857065Y147973D01*
X857063Y147908D01*
X857057Y147844D01*
X857047Y147780D01*
X857034Y147716D01*
X857016Y147654D01*
X856995Y147593D01*
X856971Y147533D01*
X856942Y147475D01*
X856910Y147418D01*
X856875Y147364D01*
X856837Y147312D01*
X856795Y147262D01*
X856751Y147215D01*
X856704Y147171D01*
X856654Y147129D01*
X856602Y147091D01*
X856548Y147056D01*
X856491Y147024D01*
X856433Y146995D01*
X856373Y146971D01*
X856312Y146950D01*
X856250Y146932D01*
X856186Y146919D01*
X856122Y146909D01*
X856058Y146903D01*
X855993Y146901D01*
X855993Y146900D02*
X854920Y146900D01*
X80000Y185000D02*
X80000Y295000D01*
X64000Y160000D02*
X15000Y160000D01*
X15000Y320000D01*
X64000Y320000D01*
D13*
X30119Y218250D02*
X19881Y218250D01*
X19881Y221093D01*
X19883Y221198D01*
X19889Y221303D01*
X19898Y221408D01*
X19912Y221512D01*
X19929Y221616D01*
X19951Y221719D01*
X19976Y221821D01*
X20004Y221922D01*
X20037Y222022D01*
X20073Y222120D01*
X20113Y222218D01*
X20156Y222313D01*
X20203Y222408D01*
X20253Y222500D01*
X20307Y222590D01*
X20364Y222678D01*
X20424Y222765D01*
X20487Y222849D01*
X20554Y222930D01*
X20623Y223009D01*
X20695Y223085D01*
X20770Y223159D01*
X20848Y223230D01*
X20928Y223298D01*
X21011Y223363D01*
X21096Y223424D01*
X21183Y223483D01*
X21273Y223538D01*
X21364Y223590D01*
X21457Y223639D01*
X21552Y223684D01*
X21649Y223726D01*
X21747Y223763D01*
X21846Y223798D01*
X21947Y223828D01*
X22048Y223855D01*
X22151Y223878D01*
X22254Y223898D01*
X22358Y223913D01*
X22463Y223925D01*
X22567Y223933D01*
X22672Y223937D01*
X22778Y223937D01*
X22883Y223933D01*
X22987Y223925D01*
X23092Y223913D01*
X23196Y223898D01*
X23299Y223878D01*
X23402Y223855D01*
X23503Y223828D01*
X23604Y223798D01*
X23703Y223763D01*
X23801Y223726D01*
X23898Y223684D01*
X23993Y223639D01*
X24086Y223590D01*
X24177Y223538D01*
X24267Y223483D01*
X24354Y223424D01*
X24439Y223363D01*
X24522Y223298D01*
X24602Y223230D01*
X24680Y223159D01*
X24755Y223085D01*
X24827Y223009D01*
X24896Y222930D01*
X24963Y222849D01*
X25026Y222765D01*
X25086Y222678D01*
X25143Y222590D01*
X25197Y222500D01*
X25247Y222408D01*
X25294Y222313D01*
X25337Y222218D01*
X25377Y222120D01*
X25413Y222022D01*
X25446Y221922D01*
X25474Y221821D01*
X25499Y221719D01*
X25521Y221616D01*
X25538Y221512D01*
X25552Y221408D01*
X25561Y221303D01*
X25567Y221198D01*
X25569Y221093D01*
X25569Y218250D01*
X27275Y227683D02*
X22725Y227683D01*
X22620Y227685D01*
X22515Y227691D01*
X22410Y227700D01*
X22306Y227714D01*
X22202Y227731D01*
X22099Y227753D01*
X21997Y227778D01*
X21896Y227806D01*
X21796Y227839D01*
X21698Y227875D01*
X21600Y227915D01*
X21505Y227958D01*
X21410Y228005D01*
X21318Y228055D01*
X21228Y228109D01*
X21140Y228166D01*
X21053Y228226D01*
X20969Y228289D01*
X20888Y228356D01*
X20809Y228425D01*
X20733Y228497D01*
X20659Y228572D01*
X20588Y228650D01*
X20520Y228730D01*
X20455Y228813D01*
X20394Y228898D01*
X20335Y228985D01*
X20280Y229075D01*
X20228Y229166D01*
X20179Y229259D01*
X20134Y229354D01*
X20092Y229451D01*
X20055Y229549D01*
X20020Y229648D01*
X19990Y229749D01*
X19963Y229850D01*
X19940Y229953D01*
X19920Y230056D01*
X19905Y230160D01*
X19893Y230265D01*
X19885Y230369D01*
X19881Y230474D01*
X19881Y230580D01*
X19885Y230685D01*
X19893Y230789D01*
X19905Y230894D01*
X19920Y230998D01*
X19940Y231101D01*
X19963Y231204D01*
X19990Y231305D01*
X20020Y231406D01*
X20055Y231505D01*
X20092Y231603D01*
X20134Y231700D01*
X20179Y231795D01*
X20228Y231888D01*
X20280Y231979D01*
X20335Y232069D01*
X20394Y232156D01*
X20455Y232241D01*
X20520Y232324D01*
X20588Y232404D01*
X20659Y232482D01*
X20733Y232557D01*
X20809Y232629D01*
X20888Y232698D01*
X20969Y232765D01*
X21053Y232828D01*
X21140Y232888D01*
X21228Y232945D01*
X21318Y232999D01*
X21410Y233049D01*
X21505Y233096D01*
X21600Y233139D01*
X21698Y233179D01*
X21796Y233215D01*
X21896Y233248D01*
X21997Y233276D01*
X22099Y233301D01*
X22202Y233323D01*
X22306Y233340D01*
X22410Y233354D01*
X22515Y233363D01*
X22620Y233369D01*
X22725Y233371D01*
X22725Y233370D02*
X27275Y233370D01*
X27275Y233371D02*
X27380Y233369D01*
X27485Y233363D01*
X27590Y233354D01*
X27694Y233340D01*
X27798Y233323D01*
X27901Y233301D01*
X28003Y233276D01*
X28104Y233248D01*
X28204Y233215D01*
X28302Y233179D01*
X28400Y233139D01*
X28495Y233096D01*
X28590Y233049D01*
X28682Y232999D01*
X28772Y232945D01*
X28860Y232888D01*
X28947Y232828D01*
X29031Y232765D01*
X29112Y232698D01*
X29191Y232629D01*
X29267Y232557D01*
X29341Y232482D01*
X29412Y232404D01*
X29480Y232324D01*
X29545Y232241D01*
X29606Y232156D01*
X29665Y232069D01*
X29720Y231979D01*
X29772Y231888D01*
X29821Y231795D01*
X29866Y231700D01*
X29908Y231603D01*
X29945Y231505D01*
X29980Y231406D01*
X30010Y231305D01*
X30037Y231204D01*
X30060Y231101D01*
X30080Y230998D01*
X30095Y230894D01*
X30107Y230789D01*
X30115Y230685D01*
X30119Y230580D01*
X30119Y230474D01*
X30115Y230369D01*
X30107Y230265D01*
X30095Y230160D01*
X30080Y230056D01*
X30060Y229953D01*
X30037Y229850D01*
X30010Y229749D01*
X29980Y229648D01*
X29945Y229549D01*
X29908Y229451D01*
X29866Y229354D01*
X29821Y229259D01*
X29772Y229166D01*
X29720Y229075D01*
X29665Y228985D01*
X29606Y228898D01*
X29545Y228813D01*
X29480Y228730D01*
X29412Y228650D01*
X29341Y228572D01*
X29267Y228497D01*
X29191Y228425D01*
X29112Y228356D01*
X29031Y228289D01*
X28947Y228226D01*
X28860Y228166D01*
X28772Y228109D01*
X28682Y228055D01*
X28590Y228005D01*
X28495Y227958D01*
X28400Y227915D01*
X28302Y227875D01*
X28204Y227839D01*
X28104Y227806D01*
X28003Y227778D01*
X27901Y227753D01*
X27798Y227731D01*
X27694Y227714D01*
X27590Y227700D01*
X27485Y227691D01*
X27380Y227685D01*
X27275Y227683D01*
X30119Y239767D02*
X19881Y239767D01*
X19881Y242610D02*
X19881Y236923D01*
X21303Y247016D02*
X21485Y246930D01*
X21669Y246848D01*
X21855Y246771D01*
X22043Y246698D01*
X22232Y246630D01*
X22423Y246566D01*
X22616Y246507D01*
X22810Y246452D01*
X23005Y246402D01*
X23201Y246357D01*
X23398Y246316D01*
X23597Y246281D01*
X23796Y246249D01*
X23995Y246223D01*
X24196Y246201D01*
X24396Y246185D01*
X24597Y246173D01*
X24799Y246165D01*
X25000Y246163D01*
X21303Y247017D02*
X21218Y247048D01*
X21135Y247082D01*
X21054Y247120D01*
X20974Y247162D01*
X20896Y247207D01*
X20820Y247255D01*
X20746Y247307D01*
X20674Y247361D01*
X20605Y247419D01*
X20538Y247479D01*
X20474Y247542D01*
X20413Y247608D01*
X20355Y247677D01*
X20299Y247748D01*
X20247Y247821D01*
X20198Y247896D01*
X20152Y247974D01*
X20110Y248053D01*
X20071Y248134D01*
X20035Y248217D01*
X20003Y248301D01*
X19975Y248386D01*
X19950Y248473D01*
X19929Y248560D01*
X19912Y248649D01*
X19898Y248738D01*
X19889Y248827D01*
X19883Y248917D01*
X19881Y249007D01*
X19883Y249097D01*
X19889Y249187D01*
X19898Y249276D01*
X19912Y249365D01*
X19929Y249454D01*
X19950Y249541D01*
X19975Y249628D01*
X20003Y249713D01*
X20035Y249797D01*
X20071Y249880D01*
X20110Y249961D01*
X20152Y250040D01*
X20198Y250118D01*
X20247Y250193D01*
X20299Y250266D01*
X20355Y250337D01*
X20413Y250406D01*
X20474Y250472D01*
X20539Y250535D01*
X20605Y250595D01*
X20674Y250653D01*
X20746Y250707D01*
X20820Y250759D01*
X20896Y250807D01*
X20974Y250852D01*
X21054Y250894D01*
X21135Y250932D01*
X21218Y250966D01*
X21303Y250997D01*
X21303Y250998D02*
X21485Y251084D01*
X21669Y251166D01*
X21855Y251243D01*
X22043Y251316D01*
X22232Y251384D01*
X22423Y251448D01*
X22616Y251507D01*
X22810Y251562D01*
X23005Y251612D01*
X23201Y251657D01*
X23398Y251698D01*
X23597Y251733D01*
X23796Y251765D01*
X23995Y251791D01*
X24196Y251813D01*
X24396Y251829D01*
X24597Y251841D01*
X24799Y251849D01*
X25000Y251851D01*
X25000Y246163D02*
X25201Y246165D01*
X25403Y246173D01*
X25604Y246185D01*
X25804Y246201D01*
X26005Y246223D01*
X26204Y246249D01*
X26403Y246281D01*
X26602Y246316D01*
X26799Y246357D01*
X26995Y246402D01*
X27190Y246452D01*
X27384Y246507D01*
X27577Y246566D01*
X27768Y246630D01*
X27957Y246698D01*
X28145Y246771D01*
X28331Y246848D01*
X28515Y246930D01*
X28697Y247016D01*
X28698Y247016D02*
X28782Y247047D01*
X28865Y247081D01*
X28947Y247120D01*
X29027Y247161D01*
X29105Y247206D01*
X29181Y247254D01*
X29255Y247306D01*
X29326Y247360D01*
X29396Y247418D01*
X29462Y247478D01*
X29526Y247542D01*
X29588Y247608D01*
X29646Y247676D01*
X29701Y247747D01*
X29754Y247820D01*
X29803Y247896D01*
X29849Y247973D01*
X29891Y248053D01*
X29930Y248134D01*
X29966Y248216D01*
X29998Y248301D01*
X30026Y248386D01*
X30051Y248473D01*
X30072Y248560D01*
X30089Y248649D01*
X30103Y248738D01*
X30112Y248827D01*
X30118Y248917D01*
X30120Y249007D01*
X28697Y250997D02*
X28515Y251083D01*
X28331Y251165D01*
X28145Y251242D01*
X27957Y251315D01*
X27768Y251383D01*
X27577Y251447D01*
X27384Y251506D01*
X27190Y251561D01*
X26995Y251611D01*
X26799Y251656D01*
X26602Y251697D01*
X26403Y251732D01*
X26204Y251764D01*
X26005Y251790D01*
X25804Y251812D01*
X25604Y251828D01*
X25403Y251840D01*
X25201Y251848D01*
X25000Y251850D01*
X28697Y250997D02*
X28782Y250966D01*
X28865Y250932D01*
X28946Y250894D01*
X29026Y250852D01*
X29104Y250807D01*
X29180Y250759D01*
X29254Y250707D01*
X29326Y250653D01*
X29395Y250595D01*
X29462Y250535D01*
X29526Y250472D01*
X29587Y250406D01*
X29645Y250337D01*
X29701Y250266D01*
X29753Y250193D01*
X29802Y250118D01*
X29848Y250040D01*
X29890Y249961D01*
X29929Y249880D01*
X29965Y249797D01*
X29997Y249713D01*
X30025Y249628D01*
X30050Y249541D01*
X30071Y249454D01*
X30088Y249365D01*
X30102Y249276D01*
X30111Y249187D01*
X30117Y249097D01*
X30119Y249007D01*
X27844Y246731D02*
X22156Y251282D01*
X19881Y259191D02*
X19883Y259292D01*
X19889Y259392D01*
X19899Y259492D01*
X19913Y259591D01*
X19930Y259690D01*
X19952Y259789D01*
X19977Y259886D01*
X20006Y259982D01*
X20039Y260077D01*
X20076Y260171D01*
X20116Y260263D01*
X20160Y260353D01*
X20207Y260442D01*
X20258Y260529D01*
X20312Y260613D01*
X20370Y260696D01*
X20431Y260776D01*
X20494Y260854D01*
X20561Y260929D01*
X20631Y261001D01*
X20703Y261071D01*
X20778Y261138D01*
X20856Y261201D01*
X20936Y261262D01*
X21019Y261320D01*
X21103Y261374D01*
X21190Y261425D01*
X21279Y261472D01*
X21369Y261516D01*
X21461Y261556D01*
X21555Y261593D01*
X21650Y261626D01*
X21746Y261655D01*
X21843Y261680D01*
X21942Y261702D01*
X22041Y261719D01*
X22140Y261733D01*
X22240Y261743D01*
X22340Y261749D01*
X22441Y261751D01*
X19881Y259191D02*
X19883Y259079D01*
X19889Y258968D01*
X19898Y258856D01*
X19911Y258745D01*
X19928Y258635D01*
X19949Y258525D01*
X19974Y258416D01*
X20002Y258308D01*
X20034Y258201D01*
X20069Y258095D01*
X20108Y257990D01*
X20151Y257887D01*
X20197Y257785D01*
X20246Y257685D01*
X20299Y257586D01*
X20355Y257490D01*
X20415Y257395D01*
X20477Y257303D01*
X20543Y257212D01*
X20612Y257124D01*
X20684Y257038D01*
X20758Y256955D01*
X20836Y256875D01*
X20916Y256797D01*
X20998Y256721D01*
X21084Y256649D01*
X21171Y256580D01*
X21261Y256513D01*
X21353Y256450D01*
X21447Y256390D01*
X21543Y256333D01*
X21642Y256279D01*
X21741Y256229D01*
X21843Y256182D01*
X21946Y256139D01*
X22050Y256099D01*
X22156Y256063D01*
X24432Y260897D02*
X24360Y260969D01*
X24287Y261038D01*
X24211Y261105D01*
X24132Y261168D01*
X24051Y261229D01*
X23968Y261287D01*
X23883Y261342D01*
X23796Y261393D01*
X23707Y261441D01*
X23616Y261486D01*
X23524Y261528D01*
X23430Y261566D01*
X23335Y261601D01*
X23239Y261632D01*
X23141Y261659D01*
X23043Y261683D01*
X22944Y261704D01*
X22844Y261720D01*
X22744Y261733D01*
X22643Y261743D01*
X22542Y261748D01*
X22441Y261750D01*
X24431Y260897D02*
X30119Y256063D01*
X30119Y261750D01*
D12*
X80000Y475000D02*
X80000Y585000D01*
X64000Y450000D02*
X15000Y450000D01*
X15000Y610000D01*
X64000Y610000D01*
D13*
X30119Y508250D02*
X19881Y508250D01*
X19881Y511093D01*
X19883Y511198D01*
X19889Y511303D01*
X19898Y511408D01*
X19912Y511512D01*
X19929Y511616D01*
X19951Y511719D01*
X19976Y511821D01*
X20004Y511922D01*
X20037Y512022D01*
X20073Y512120D01*
X20113Y512218D01*
X20156Y512313D01*
X20203Y512408D01*
X20253Y512500D01*
X20307Y512590D01*
X20364Y512678D01*
X20424Y512765D01*
X20487Y512849D01*
X20554Y512930D01*
X20623Y513009D01*
X20695Y513085D01*
X20770Y513159D01*
X20848Y513230D01*
X20928Y513298D01*
X21011Y513363D01*
X21096Y513424D01*
X21183Y513483D01*
X21273Y513538D01*
X21364Y513590D01*
X21457Y513639D01*
X21552Y513684D01*
X21649Y513726D01*
X21747Y513763D01*
X21846Y513798D01*
X21947Y513828D01*
X22048Y513855D01*
X22151Y513878D01*
X22254Y513898D01*
X22358Y513913D01*
X22463Y513925D01*
X22567Y513933D01*
X22672Y513937D01*
X22778Y513937D01*
X22883Y513933D01*
X22987Y513925D01*
X23092Y513913D01*
X23196Y513898D01*
X23299Y513878D01*
X23402Y513855D01*
X23503Y513828D01*
X23604Y513798D01*
X23703Y513763D01*
X23801Y513726D01*
X23898Y513684D01*
X23993Y513639D01*
X24086Y513590D01*
X24177Y513538D01*
X24267Y513483D01*
X24354Y513424D01*
X24439Y513363D01*
X24522Y513298D01*
X24602Y513230D01*
X24680Y513159D01*
X24755Y513085D01*
X24827Y513009D01*
X24896Y512930D01*
X24963Y512849D01*
X25026Y512765D01*
X25086Y512678D01*
X25143Y512590D01*
X25197Y512500D01*
X25247Y512408D01*
X25294Y512313D01*
X25337Y512218D01*
X25377Y512120D01*
X25413Y512022D01*
X25446Y511922D01*
X25474Y511821D01*
X25499Y511719D01*
X25521Y511616D01*
X25538Y511512D01*
X25552Y511408D01*
X25561Y511303D01*
X25567Y511198D01*
X25569Y511093D01*
X25569Y508250D01*
X27275Y517683D02*
X22725Y517683D01*
X22620Y517685D01*
X22515Y517691D01*
X22410Y517700D01*
X22306Y517714D01*
X22202Y517731D01*
X22099Y517753D01*
X21997Y517778D01*
X21896Y517806D01*
X21796Y517839D01*
X21698Y517875D01*
X21600Y517915D01*
X21505Y517958D01*
X21410Y518005D01*
X21318Y518055D01*
X21228Y518109D01*
X21140Y518166D01*
X21053Y518226D01*
X20969Y518289D01*
X20888Y518356D01*
X20809Y518425D01*
X20733Y518497D01*
X20659Y518572D01*
X20588Y518650D01*
X20520Y518730D01*
X20455Y518813D01*
X20394Y518898D01*
X20335Y518985D01*
X20280Y519075D01*
X20228Y519166D01*
X20179Y519259D01*
X20134Y519354D01*
X20092Y519451D01*
X20055Y519549D01*
X20020Y519648D01*
X19990Y519749D01*
X19963Y519850D01*
X19940Y519953D01*
X19920Y520056D01*
X19905Y520160D01*
X19893Y520265D01*
X19885Y520369D01*
X19881Y520474D01*
X19881Y520580D01*
X19885Y520685D01*
X19893Y520789D01*
X19905Y520894D01*
X19920Y520998D01*
X19940Y521101D01*
X19963Y521204D01*
X19990Y521305D01*
X20020Y521406D01*
X20055Y521505D01*
X20092Y521603D01*
X20134Y521700D01*
X20179Y521795D01*
X20228Y521888D01*
X20280Y521979D01*
X20335Y522069D01*
X20394Y522156D01*
X20455Y522241D01*
X20520Y522324D01*
X20588Y522404D01*
X20659Y522482D01*
X20733Y522557D01*
X20809Y522629D01*
X20888Y522698D01*
X20969Y522765D01*
X21053Y522828D01*
X21140Y522888D01*
X21228Y522945D01*
X21318Y522999D01*
X21410Y523049D01*
X21505Y523096D01*
X21600Y523139D01*
X21698Y523179D01*
X21796Y523215D01*
X21896Y523248D01*
X21997Y523276D01*
X22099Y523301D01*
X22202Y523323D01*
X22306Y523340D01*
X22410Y523354D01*
X22515Y523363D01*
X22620Y523369D01*
X22725Y523371D01*
X22725Y523370D02*
X27275Y523370D01*
X27275Y523371D02*
X27380Y523369D01*
X27485Y523363D01*
X27590Y523354D01*
X27694Y523340D01*
X27798Y523323D01*
X27901Y523301D01*
X28003Y523276D01*
X28104Y523248D01*
X28204Y523215D01*
X28302Y523179D01*
X28400Y523139D01*
X28495Y523096D01*
X28590Y523049D01*
X28682Y522999D01*
X28772Y522945D01*
X28860Y522888D01*
X28947Y522828D01*
X29031Y522765D01*
X29112Y522698D01*
X29191Y522629D01*
X29267Y522557D01*
X29341Y522482D01*
X29412Y522404D01*
X29480Y522324D01*
X29545Y522241D01*
X29606Y522156D01*
X29665Y522069D01*
X29720Y521979D01*
X29772Y521888D01*
X29821Y521795D01*
X29866Y521700D01*
X29908Y521603D01*
X29945Y521505D01*
X29980Y521406D01*
X30010Y521305D01*
X30037Y521204D01*
X30060Y521101D01*
X30080Y520998D01*
X30095Y520894D01*
X30107Y520789D01*
X30115Y520685D01*
X30119Y520580D01*
X30119Y520474D01*
X30115Y520369D01*
X30107Y520265D01*
X30095Y520160D01*
X30080Y520056D01*
X30060Y519953D01*
X30037Y519850D01*
X30010Y519749D01*
X29980Y519648D01*
X29945Y519549D01*
X29908Y519451D01*
X29866Y519354D01*
X29821Y519259D01*
X29772Y519166D01*
X29720Y519075D01*
X29665Y518985D01*
X29606Y518898D01*
X29545Y518813D01*
X29480Y518730D01*
X29412Y518650D01*
X29341Y518572D01*
X29267Y518497D01*
X29191Y518425D01*
X29112Y518356D01*
X29031Y518289D01*
X28947Y518226D01*
X28860Y518166D01*
X28772Y518109D01*
X28682Y518055D01*
X28590Y518005D01*
X28495Y517958D01*
X28400Y517915D01*
X28302Y517875D01*
X28204Y517839D01*
X28104Y517806D01*
X28003Y517778D01*
X27901Y517753D01*
X27798Y517731D01*
X27694Y517714D01*
X27590Y517700D01*
X27485Y517691D01*
X27380Y517685D01*
X27275Y517683D01*
X30119Y529767D02*
X19881Y529767D01*
X19881Y532610D02*
X19881Y526923D01*
X21303Y537016D02*
X21485Y536930D01*
X21669Y536848D01*
X21855Y536771D01*
X22043Y536698D01*
X22232Y536630D01*
X22423Y536566D01*
X22616Y536507D01*
X22810Y536452D01*
X23005Y536402D01*
X23201Y536357D01*
X23398Y536316D01*
X23597Y536281D01*
X23796Y536249D01*
X23995Y536223D01*
X24196Y536201D01*
X24396Y536185D01*
X24597Y536173D01*
X24799Y536165D01*
X25000Y536163D01*
X21303Y537017D02*
X21218Y537048D01*
X21135Y537082D01*
X21054Y537120D01*
X20974Y537162D01*
X20896Y537207D01*
X20820Y537255D01*
X20746Y537307D01*
X20674Y537361D01*
X20605Y537419D01*
X20538Y537479D01*
X20474Y537542D01*
X20413Y537608D01*
X20355Y537677D01*
X20299Y537748D01*
X20247Y537821D01*
X20198Y537896D01*
X20152Y537974D01*
X20110Y538053D01*
X20071Y538134D01*
X20035Y538217D01*
X20003Y538301D01*
X19975Y538386D01*
X19950Y538473D01*
X19929Y538560D01*
X19912Y538649D01*
X19898Y538738D01*
X19889Y538827D01*
X19883Y538917D01*
X19881Y539007D01*
X19883Y539097D01*
X19889Y539187D01*
X19898Y539276D01*
X19912Y539365D01*
X19929Y539454D01*
X19950Y539541D01*
X19975Y539628D01*
X20003Y539713D01*
X20035Y539797D01*
X20071Y539880D01*
X20110Y539961D01*
X20152Y540040D01*
X20198Y540118D01*
X20247Y540193D01*
X20299Y540266D01*
X20355Y540337D01*
X20413Y540406D01*
X20474Y540472D01*
X20539Y540535D01*
X20605Y540595D01*
X20674Y540653D01*
X20746Y540707D01*
X20820Y540759D01*
X20896Y540807D01*
X20974Y540852D01*
X21054Y540894D01*
X21135Y540932D01*
X21218Y540966D01*
X21303Y540997D01*
X21303Y540998D02*
X21485Y541084D01*
X21669Y541166D01*
X21855Y541243D01*
X22043Y541316D01*
X22232Y541384D01*
X22423Y541448D01*
X22616Y541507D01*
X22810Y541562D01*
X23005Y541612D01*
X23201Y541657D01*
X23398Y541698D01*
X23597Y541733D01*
X23796Y541765D01*
X23995Y541791D01*
X24196Y541813D01*
X24396Y541829D01*
X24597Y541841D01*
X24799Y541849D01*
X25000Y541851D01*
X25000Y536163D02*
X25201Y536165D01*
X25403Y536173D01*
X25604Y536185D01*
X25804Y536201D01*
X26005Y536223D01*
X26204Y536249D01*
X26403Y536281D01*
X26602Y536316D01*
X26799Y536357D01*
X26995Y536402D01*
X27190Y536452D01*
X27384Y536507D01*
X27577Y536566D01*
X27768Y536630D01*
X27957Y536698D01*
X28145Y536771D01*
X28331Y536848D01*
X28515Y536930D01*
X28697Y537016D01*
X28698Y537016D02*
X28782Y537047D01*
X28865Y537081D01*
X28947Y537120D01*
X29027Y537161D01*
X29105Y537206D01*
X29181Y537254D01*
X29255Y537306D01*
X29326Y537360D01*
X29396Y537418D01*
X29462Y537478D01*
X29526Y537542D01*
X29588Y537608D01*
X29646Y537676D01*
X29701Y537747D01*
X29754Y537820D01*
X29803Y537896D01*
X29849Y537973D01*
X29891Y538053D01*
X29930Y538134D01*
X29966Y538216D01*
X29998Y538301D01*
X30026Y538386D01*
X30051Y538473D01*
X30072Y538560D01*
X30089Y538649D01*
X30103Y538738D01*
X30112Y538827D01*
X30118Y538917D01*
X30120Y539007D01*
X28697Y540997D02*
X28515Y541083D01*
X28331Y541165D01*
X28145Y541242D01*
X27957Y541315D01*
X27768Y541383D01*
X27577Y541447D01*
X27384Y541506D01*
X27190Y541561D01*
X26995Y541611D01*
X26799Y541656D01*
X26602Y541697D01*
X26403Y541732D01*
X26204Y541764D01*
X26005Y541790D01*
X25804Y541812D01*
X25604Y541828D01*
X25403Y541840D01*
X25201Y541848D01*
X25000Y541850D01*
X28697Y540997D02*
X28782Y540966D01*
X28865Y540932D01*
X28946Y540894D01*
X29026Y540852D01*
X29104Y540807D01*
X29180Y540759D01*
X29254Y540707D01*
X29326Y540653D01*
X29395Y540595D01*
X29462Y540535D01*
X29526Y540472D01*
X29587Y540406D01*
X29645Y540337D01*
X29701Y540266D01*
X29753Y540193D01*
X29802Y540118D01*
X29848Y540040D01*
X29890Y539961D01*
X29929Y539880D01*
X29965Y539797D01*
X29997Y539713D01*
X30025Y539628D01*
X30050Y539541D01*
X30071Y539454D01*
X30088Y539365D01*
X30102Y539276D01*
X30111Y539187D01*
X30117Y539097D01*
X30119Y539007D01*
X27844Y536731D02*
X22156Y541282D01*
X22156Y546063D02*
X19881Y548907D01*
X30119Y548907D01*
X30119Y551750D02*
X30119Y546063D01*
M02*
