G04 EAGLE Gerber RS-274X export*
G75*
%MOMM*%
%FSLAX34Y34*%
%LPD*%
%INSoldermask Top*%
%IPPOS*%
%AMOC8*
5,1,8,0,0,1.08239X$1,22.5*%
G01*
%ADD10C,4.203200*%
%ADD11C,2.082800*%
%ADD12C,2.387600*%
%ADD13C,1.403200*%
%ADD14C,1.711200*%
%ADD15R,4.219200X4.219200*%
%ADD16C,0.959600*%


D10*
X60000Y60000D03*
X840000Y60000D03*
X60000Y710000D03*
X840000Y710000D03*
D11*
X411900Y290000D03*
X488100Y290000D03*
X411900Y180000D03*
X488100Y180000D03*
X411900Y140000D03*
X488100Y140000D03*
X411900Y250000D03*
X488100Y250000D03*
D12*
X845000Y570000D03*
X795000Y545000D03*
X795000Y520000D03*
X795000Y595000D03*
X795000Y620000D03*
D13*
X845000Y520000D03*
X870000Y520000D03*
X870000Y620000D03*
X845000Y620000D03*
X795000Y570000D03*
D12*
X845000Y440000D03*
X795000Y415000D03*
X795000Y390000D03*
X795000Y465000D03*
X795000Y490000D03*
D13*
X845000Y390000D03*
X870000Y390000D03*
X870000Y490000D03*
X845000Y490000D03*
X795000Y440000D03*
D12*
X845000Y170000D03*
X795000Y145000D03*
X795000Y120000D03*
X795000Y195000D03*
X795000Y220000D03*
D13*
X845000Y120000D03*
X870000Y120000D03*
X870000Y220000D03*
X845000Y220000D03*
X795000Y170000D03*
D14*
X57000Y260000D02*
X41920Y260000D01*
X41920Y220000D02*
X57000Y220000D01*
X57000Y200000D02*
X41920Y200000D01*
X41920Y180000D02*
X57000Y180000D01*
X57000Y280000D02*
X41920Y280000D01*
X42920Y300000D02*
X58000Y300000D01*
X57000Y240000D02*
X41920Y240000D01*
D15*
X90000Y159000D03*
X90000Y321000D03*
D14*
X57000Y550000D02*
X41920Y550000D01*
X41920Y510000D02*
X57000Y510000D01*
X57000Y490000D02*
X41920Y490000D01*
X41920Y470000D02*
X57000Y470000D01*
X57000Y570000D02*
X41920Y570000D01*
X42920Y590000D02*
X58000Y590000D01*
X57000Y530000D02*
X41920Y530000D01*
D15*
X90000Y449000D03*
X90000Y611000D03*
D16*
X380000Y180000D03*
X290000Y180000D03*
X380000Y290000D03*
X290000Y290000D03*
X340000Y550000D03*
X340000Y590000D03*
X640000Y540000D03*
X610000Y510000D03*
X460000Y460000D03*
X400000Y460000D03*
X330000Y370000D03*
X240000Y370000D03*
X670000Y510000D03*
X580000Y540000D03*
X430000Y490000D03*
X370000Y490000D03*
X300000Y400000D03*
X210000Y400000D03*
M02*
