M48
;GenerationSoftware,Autodesk,EAGLE,9.6.2*%
;CreationDate,2020-07-23T15:54:58Z*%
FMAT,2
ICI,OFF
METRIC,TZ,000.000
T7C0.350
T6C0.900
T5C1.000
T4C1.200
T3C1.300
T2C3.000
T1C4.000
%
G90
M71
T1
X6000Y6000
X84000Y6000
X6000Y71000
X84000Y71000
T2
X9000Y44900
X9000Y15900
X9000Y32100
X9000Y61100
T3
X79500Y59500
X79500Y54500
X84500Y57000
X79500Y22000
X79500Y19500
X79500Y12000
X79500Y14500
X84500Y17000
X79500Y49000
X79500Y46500
X79500Y39000
X79500Y41500
X84500Y44000
X79500Y62000
X79500Y52000
T4
X84500Y52000
X79500Y17000
X87000Y22000
X87000Y52000
X87000Y62000
X84500Y62000
X79500Y57000
X84500Y39000
X87000Y39000
X87000Y49000
X84500Y49000
X79500Y44000
X84500Y12000
X87000Y12000
X84500Y22000
T5
X5700Y26000
X5700Y22000
X5700Y20000
X5700Y18000
X5700Y28000
X5800Y30000
X5700Y24000
X5700Y55000
X5700Y51000
X5700Y49000
X5700Y47000
X5700Y57000
X5800Y59000
X5700Y53000
T6
X41190Y29000
X41190Y18000
X48810Y18000
X41190Y14000
X48810Y14000
X41190Y25000
X48810Y25000
X48810Y29000
T7
X29000Y18000
X38000Y29000
X40000Y46000
X21000Y40000
X30000Y40000
X37000Y49000
X43000Y49000
X34000Y59000
X38000Y18000
X58000Y54000
X67000Y51000
X24000Y37000
X33000Y37000
X46000Y46000
X61000Y51000
X64000Y54000
X34000Y55000
X29000Y29000
M30